<svg xmlns="http://www.w3.org/2000/svg" viewBox="0 0 58.02 57.99"><defs><style>.cls-1{fill:#4359f3;}</style></defs><g id="Layer_2" data-name="Layer 2"><g id="Layer_1-2" data-name="Layer 1"><path class="cls-1" d="M41.47,29c-1-.46-2.1-.87-3.17-1.31a15.42,15.42,0,1,0-18.55,0l-.7.25A29.18,29.18,0,0,0,6.48,36.72,29.54,29.54,0,0,0,.18,49.53,6.89,6.89,0,0,0,7,58H34.51A4.35,4.35,0,0,0,35,58a2.27,2.27,0,0,0,1.86-3.1,2.33,2.33,0,0,0-2.36-1.41H7.33a4.85,4.85,0,0,1-.85-.05,2.3,2.3,0,0,1-1.9-2.74,23.67,23.67,0,0,1,2.15-6.17,25.1,25.1,0,0,1,28.41-13,32.47,32.47,0,0,1,4.67,1.67,2.24,2.24,0,0,0,3.09-1.65A2.29,2.29,0,0,0,41.47,29ZM28.71,26.23A10.87,10.87,0,1,1,39.88,15.39,10.82,10.82,0,0,1,28.71,26.23Z"/><path class="cls-1" d="M56.67,49.28a2.67,2.67,0,0,1-1.15.21c-1.85,0-3.7,0-5.55,0-.37,0-.47.1-.47.46,0,1,0,1.93,0,2.89s0,1.85,0,2.78a2.27,2.27,0,1,1-4.53,0c0-1.83,0-3.66,0-5.49,0-.47-.06-.64-.59-.63-1.89,0-3.78,0-5.66,0A2.25,2.25,0,0,1,36.84,46a2.23,2.23,0,0,1,2-1.07c1.89,0,3.77,0,5.66,0,.4,0,.5-.09.49-.49,0-1.92,0-3.85,0-5.77a2.2,2.2,0,0,1,1.63-2.14,2.23,2.23,0,0,1,2.49.88,2.52,2.52,0,0,1,.41,1.44c0,1.81,0,3.62,0,5.44,0,.48.08.66.62.65,1.89,0,3.78,0,5.67,0A2.25,2.25,0,0,1,58,46.82,2.28,2.28,0,0,1,56.67,49.28Z"/><path class="cls-1" d="M41.47,29c-1-.46-2.1-.87-3.17-1.31a15.42,15.42,0,1,0-18.55,0l-.7.25A29.18,29.18,0,0,0,6.48,36.72,29.54,29.54,0,0,0,.18,49.53,6.89,6.89,0,0,0,7,58H34.51A4.35,4.35,0,0,0,35,58a2.27,2.27,0,0,0,1.86-3.1,2.33,2.33,0,0,0-2.36-1.41H7.33a4.85,4.85,0,0,1-.85-.05,2.3,2.3,0,0,1-1.9-2.74,23.67,23.67,0,0,1,2.15-6.17,25.1,25.1,0,0,1,28.41-13,32.47,32.47,0,0,1,4.67,1.67,2.24,2.24,0,0,0,3.09-1.65A2.29,2.29,0,0,0,41.47,29ZM28.71,26.23A10.87,10.87,0,1,1,39.88,15.39,10.82,10.82,0,0,1,28.71,26.23Z"/><path class="cls-1" d="M56.67,49.28a2.67,2.67,0,0,1-1.15.21c-1.85,0-3.7,0-5.55,0-.37,0-.47.1-.47.46,0,1,0,1.93,0,2.89s0,1.85,0,2.78a2.27,2.27,0,1,1-4.53,0c0-1.83,0-3.66,0-5.49,0-.47-.06-.64-.59-.63-1.89,0-3.78,0-5.66,0A2.25,2.25,0,0,1,36.84,46a2.23,2.23,0,0,1,2-1.07c1.89,0,3.77,0,5.66,0,.4,0,.5-.09.49-.49,0-1.92,0-3.85,0-5.77a2.2,2.2,0,0,1,1.63-2.14,2.23,2.23,0,0,1,2.49.88,2.52,2.52,0,0,1,.41,1.44c0,1.81,0,3.62,0,5.44,0,.48.08.66.62.65,1.89,0,3.78,0,5.67,0A2.25,2.25,0,0,1,58,46.82,2.28,2.28,0,0,1,56.67,49.28Z"/></g></g></svg>