<svg xmlns="http://www.w3.org/2000/svg" viewBox="0 0 218.27 214.66"><defs><style>.cls-1{fill:#47261f;}.cls-2{fill:#ddd;}.cls-3{fill:#482821;}.cls-4{fill:#755e59;}.cls-5{fill:#988985;}.cls-6{fill:#77605a;}.cls-7{fill:#7c6661;}.cls-8{fill:#7e6864;}.cls-9{fill:#7e6964;}.cls-10{fill:#a99e9c;}.cls-11{fill:#745d57;}.cls-12{fill:#ada2a0;}.cls-13{fill:#6d5550;}.cls-14{fill:#6c534e;}.cls-15{fill:#a49794;}.cls-16{fill:#7b6560;}.cls-17{fill:#867774;}.cls-18{fill:#745d58;}.cls-19{fill:#745c56;}.cls-20{fill:#77605b;}.cls-21{fill:#735c56;}.cls-22{fill:#a29491;}.cls-23{fill:#705752;}.cls-24{fill:#847571;}.cls-25{fill:#7c6662;}.cls-26{fill:#dddada;}.cls-27{fill:#857571;}.cls-28{fill:#fafafa;}.cls-29{fill:#9fbbdc;}.cls-30{fill:#ad9d98;}.cls-31{fill:#e88d43;}.cls-32{fill:#66505a;}.cls-33{fill:#d06a59;}.cls-34{fill:#8590a6;}.cls-35{fill:#735d58;}.cls-36{fill:#dbd6d5;}.cls-37{fill:#81716c;}.cls-38{fill:#7e6761;}.cls-39{fill:#735c57;}.cls-40{fill:#838ea3;}.cls-41{fill:#775e58;}.cls-42{fill:#887772;}.cls-43{fill:#867672;}.cls-44{fill:#8693a9;}.cls-45{fill:#5f5155;}.cls-46{fill:#8997af;}.cls-47{fill:#72707c;}.cls-48{fill:#80706c;}.cls-49{fill:#6e544e;}.cls-50{fill:#6a626b;}.cls-51{fill:#806b65;}.cls-52{fill:#8794ab;}.cls-53{fill:#86746e;}.cls-54{fill:#806a64;}.cls-55{fill:#777881;}.cls-56{fill:#968380;}.cls-57{fill:#aca2a0;}.cls-58{fill:#806f6a;}.cls-59{fill:#c6d0de;}.cls-60{fill:#592f27;}.cls-61{fill:#52342d;}.cls-62{fill:#6a626c;}.cls-63{fill:#72707b;}.cls-64{fill:#80899e;}.cls-65{fill:#63565c;}.cls-66{fill:#706c78;}.cls-67{fill:#615258;}.cls-68{fill:#5d4c4f;}.cls-69{fill:#aa9f9d;}.cls-70{fill:#998b88;}.cls-71{fill:#78615c;}.cls-72{fill:#897a76;}.cls-73{fill:#948280;}.cls-74{fill:#ada09d;}.cls-75{fill:#725954;}.cls-76{fill:#7c6561;}.cls-77{fill:#7f6964;}.cls-78{fill:#ac9f9c;}.cls-79{fill:#8e7f7b;}.cls-80{fill:#a89a97;}.cls-81{fill:#91807f;}.cls-82{fill:#8fa2bc;}.cls-83{fill:#8d9eb8;}.cls-84{fill:#8a98b0;}.cls-85{fill:#80889c;}.cls-86{fill:#7a7c86;}.cls-87{fill:#797b85;}.cls-88{fill:#80879a;}</style></defs><g id="Layer_2" data-name="Layer 2"><g id="Layer_1-2" data-name="Layer 1"><g id="GeNZBd.tif"><path class="cls-1" d="M178.51,26.66c-1.57.73-3.13,1.45-4.69,2.19-.58.28-1.08.5-.95,1.4a10.13,10.13,0,0,1-4,9.92c-.19.15-.37.33-.55.49-2.87,2.64-6.2,2.24-9.55,1.39-.93-.23-1.7-.53-2.29.55a1.5,1.5,0,0,0,0,1.79c.54.72,1.08,1.44,1.63,2.14a74,74,0,0,1,13.81,30.31,4.54,4.54,0,0,1,.11,1c-.17,1.82.52,3.53.63,5.32a95.45,95.45,0,0,1-.31,19.49c0,.1,0,.2,0,.3a4.89,4.89,0,0,1-.11,1.26,10.33,10.33,0,0,0-.33,1.83,2.49,2.49,0,0,1-.14.44,34.62,34.62,0,0,0-1.26,5.69,67.61,67.61,0,0,1-6.13,15.19,31.27,31.27,0,0,1-2.62,4.34,30.62,30.62,0,0,0-2.48,3.63c-1.69,2.59-1.67,2.58.51,4.8,3.55,3.62,7.27,7.06,10.67,10.82a9.21,9.21,0,0,0,1.3,1.42c.6.58,1.07,1.41,1.85,1.67s1.37-.77,2.1-1.12a5.5,5.5,0,0,1,3-.31,2.86,2.86,0,0,1,1.42.76c2.77,2.81,5.78,5.39,8.19,8.55q5.55,5.64,11.12,11.26,6.52,6.57,13.11,13.09a30.76,30.76,0,0,1,3.59,4.38,16.09,16.09,0,0,1,0,15.83,18,18,0,0,1-6.55,6.29,15.88,15.88,0,0,1-13.53.64c-3.13-1.54-5.54-4-8-6.4q-14.76-14.82-29.57-29.59A8.18,8.18,0,0,0,157,176.1a4.13,4.13,0,0,1,.19-5.2c.46-.57.2-1-.23-1.42q-7.63-7.6-15.23-15.23c-.74-.75-1.35-.6-2.09-.08a72.41,72.41,0,0,1-7.23,4.21c-2.76,1.16-5.49,2.39-8.28,3.47a3.09,3.09,0,0,1-.43.14c-2.14.63-4.25,1.36-6.39,2a2.42,2.42,0,0,1-.46.13c-2.56,0-5,.85-7.51,1.13a87.51,87.51,0,0,1-21.21,0c-2.4-.5-4.86-.75-7.21-1.48a94.53,94.53,0,0,1-10.78-3.58c-.47-.27-1-.34-1.5-.61h0a49.92,49.92,0,0,1-6-3,74.78,74.78,0,0,1-21-17.6c-.31-.38-.58-.8-.87-1.19-1.39-1.68-2.58-3.51-3.82-5.29-.74-1.08-1.25-1.09-2-.15-.28.35-.63.64-.94,1-1,1-2,2-3,3L28.27,139l-3,3c-1,1-2,2-3,3a.38.38,0,0,1-.11.11c-2.07,1.35-2.11,3.14-1.1,5.16a10.28,10.28,0,0,1-3.89,9.89,11.44,11.44,0,0,1-4.51,2.06c-2.19.81-4.23.07-6.27-.61C2.28,159.45,0,156.16,0,151.47a10.94,10.94,0,0,1,1-4.17,11.77,11.77,0,0,1,2.89-3.68c.61-.41,1.28-.71,1.86-1.15h0a10.71,10.71,0,0,1,8.27-.55c.5.17,1.05.39,1.55,0,4.51-4.68,9.17-9.21,13.75-13.82L31,126.38c1.48-1.48,1.48-1.48.54-3.39l-2.09-5.07c-.49-.6-.3-1.45-.74-2.07a2.87,2.87,0,0,1-.36-1.52c-.71-1.52-.62-3.28-1.41-4.78a5.34,5.34,0,0,0-.52-2.39,72.56,72.56,0,0,1,0-30.84,30.83,30.83,0,0,0,1.06-4.44c0-1.2.7-2.18.93-3.3.61-1.38,1.1-2.81,1.61-4.22.49-1.11,1-2.21,1.46-3.32.35-.43.36-1,.64-1.47h0c.33-.33.38-.8.6-1.19q1.17-2.11,2.35-4.22c.35-.73.91-1.33,1.23-2.08A73.93,73.93,0,0,1,62.51,27.16c.25-.15.49-.33.74-.49s.85-.31,1.2-.62h0a3.1,3.1,0,0,1,1.22-.6L74,21.87a2.38,2.38,0,0,1,1.43-.47,4.26,4.26,0,0,0,1.85-.47l1.51-.56a10.89,10.89,0,0,1,2.39-.61A76.3,76.3,0,0,1,104,17.85a57.4,57.4,0,0,1,10.74,1.58c1.87.62,3.84.88,5.71,1.5a63.66,63.66,0,0,1,14.93,6.29,68.35,68.35,0,0,1,13.92,10.22c.83.8,1.19.65,1.77-.21a5,5,0,0,0,1-3.83A9.88,9.88,0,0,1,156.65,23c3.66-2.43,7.5-2.37,11.29-.23a2.25,2.25,0,0,0,2.24.08l19.1-8.74a13,13,0,0,1,3.1-1.35c1.32-.32,2.15-.94,2-2.51a9,9,0,0,1,1.11-4.57,10.51,10.51,0,0,1,15.62-3.57,13.83,13.83,0,0,1,2.1,2.09c4.39,6.16,1.77,14.37-5.41,16.55a9.86,9.86,0,0,1-9.21-1.63,2.11,2.11,0,0,0-2.55-.34c-2.72,1.33-5.51,2.49-8.28,3.72-2.61,1.18-5.25,2.28-7.8,3.58h0A13,13,0,0,0,178.51,26.66Z"/><path class="cls-2" d="M188.37,162l-6.87-6.72a9.84,9.84,0,0,0-2.69-2.29,3.87,3.87,0,0,0-4.2,1.06c-.61.68-1.05.48-1.59-.09-.92-1-1.89-1.9-2.86-2.84-3.94-4-7.84-8-11.86-11.88-1.13-1.09-1.21-1.86-.12-2.88a7.76,7.76,0,0,0,.82-1,25.54,25.54,0,0,0,2.42-3.58,74.58,74.58,0,0,0,8.71-19.43c.51-2,.94-4,1.48-6h0c.4-.54-.08-1.24.31-1.79l0-1.15a78.13,78.13,0,0,0-.33-25.8,73.41,73.41,0,0,0-15.09-32.38c-1.28-1.58-1.23-2.17.16-3.65a.79.79,0,0,1,1.05-.25,11.07,11.07,0,0,0,10.56-.57c-.26.65-.49,1.09.56,1.4a62.48,62.48,0,0,1,17.36,8.43A65.93,65.93,0,0,1,198.13,61a67.82,67.82,0,0,1,12.79,20.65,69.62,69.62,0,0,1,3.85,15.07,68.28,68.28,0,0,1,.5,13.24,62,62,0,0,1-2.39,14.34A67.91,67.91,0,0,1,201.4,147a62,62,0,0,1-13.18,12.84C186.79,160.8,188.65,161.23,188.37,162Z"/><path class="cls-2" d="M132.38,158c2.59-1.48,5.23-2.87,7.7-4.56a1,1,0,0,1,1.52.11q8,8.06,16,16.06c.55.55.44.9-.1,1.29-.75.26-.62,1.37-1.49,1.5a49.15,49.15,0,0,1-12.88.38,68,68,0,0,1-11.69-1.91A71,71,0,0,1,122.9,168a36.65,36.65,0,0,1-7.29-3.61c.34-.59,1.06-.29,1.49-.66h0a42.9,42.9,0,0,0,6.62-2,.41.41,0,0,1,.27,0A52.26,52.26,0,0,0,132.38,158Z"/><path class="cls-3" d="M197.65,44.91c.15,3-1.29,4.68-3.77,4.46-2.09-.19-3.15-1.71-3.08-4.44a3.8,3.8,0,0,1,3.59-2.72C196,42.26,197,43.11,197.65,44.91Z"/><path class="cls-4" d="M157.23,176c3.64,3.26,7,6.84,10.44,10.27q11.67,11.61,23.26,23.29a36.15,36.15,0,0,0,4.91,3.57.42.42,0,0,1-.58,0c-3.28-1.47-5.52-4.2-8-6.65q-15-15-30-29.95C157.06,176.39,157.07,176.21,157.23,176Z"/><path class="cls-5" d="M29.42,128.12c-3.24,3.62-6.82,6.88-10.2,10.36-1.1,1.13-2.23,2.24-3.35,3.36-.14.22-.31.2-.5.06q5.53-5.61,11.06-11.21c.87-.88,1.76-1.74,2.65-2.61A.2.2,0,0,1,29.42,128.12Z"/><path class="cls-6" d="M33.87,133.16c2.19-2.44,2.21-2.46,4.05.31a27.57,27.57,0,0,1,2.85,4.24,22.39,22.39,0,0,1-3.85-5c-.72-1.1-1.18-1.07-1.91-.12a8,8,0,0,1-1.1,1A.21.21,0,0,1,33.87,133.16Z"/><path class="cls-7" d="M15.37,141.9l.5-.06c-.32.59-.79.63-1.38.42a10.77,10.77,0,0,0-8.32.22c-.12.05-.29,0-.43,0,2.54-1.69,5.27-1.58,8.06-.85A3.83,3.83,0,0,0,15.37,141.9Z"/><path class="cls-8" d="M195.53,5.64a25.27,25.27,0,0,0-1,5.76c0,1.08-1.28,1.3-2.27,1.46-.1-.07-.13-.13-.09-.19a.14.14,0,0,1,.12-.08,2.28,2.28,0,0,0,1.93-2.51C194.25,8.54,194.33,6.89,195.53,5.64Z"/><path class="cls-9" d="M180,26c1.54-1.36,3.56-1.78,5.33-2.69a5.42,5.42,0,0,1,2.47-.89A44,44,0,0,1,180,26Z"/><path class="cls-10" d="M117.1,163.7c-.37.49-1,.46-1.49.66l-4.37.77a4.29,4.29,0,0,1-1.92.08A49.27,49.27,0,0,1,117.1,163.7Z"/><path class="cls-11" d="M21,150.26c-1.6-2.35-1.44-3.14,1.14-5.41a.23.23,0,0,1,.38,0C20.57,146.26,20.27,148.11,21,150.26Z"/><path class="cls-12" d="M157.23,176l.07.52c-1.59-1-1.23-2.63-1.25-4.12.59-.4.51-1.48,1.49-1.5C156.44,172.55,155.67,174.21,157.23,176Z"/><path class="cls-13" d="M120.44,20.93a15.74,15.74,0,0,1-5.71-1.5A17.17,17.17,0,0,1,120.44,20.93Z"/><path class="cls-14" d="M27.08,109.46a16,16,0,0,1,1.37,4.94.19.19,0,0,1-.29,0c-.25-.16-.23-.42-.26-.67-.24-.69-.35-1.42-.57-2.11L27,109.91A.27.27,0,0,1,27.08,109.46Z"/><path class="cls-15" d="M4,143.73a22.92,22.92,0,0,0-3,3.57,6.56,6.56,0,0,1,3-3.87c.08.06.11.12.09.19S4,143.73,4,143.73Z"/><path class="cls-16" d="M27.6,71.83c-.23,1.54-.28,3.13-1.2,4.49,0-1.55.71-3,.91-4.48C27.4,71.7,27.49,71.7,27.6,71.83Z"/><path class="cls-17" d="M30,64.36a10.37,10.37,0,0,1-1.48,4.2c-.4-.51.14-.83.25-1.23A8.25,8.25,0,0,1,30,64.36Z"/><path class="cls-18" d="M22.55,144.88l-.38,0,3-3a.22.22,0,0,1,.38,0A24.21,24.21,0,0,1,22.55,144.88Z"/><path class="cls-19" d="M33.87,133.16l0,.38-2.66,2.67c-.14.14-.26.13-.38,0Z"/><path class="cls-20" d="M30.87,136.18l.38,0-3,3c-.16-.12-.18-.24,0-.39Z"/><path class="cls-21" d="M28.18,138.84l0,.39-2.66,2.67-.38,0Z"/><path class="cls-22" d="M213.25,4.16a8.68,8.68,0,0,1-2.1-2.09A3.31,3.31,0,0,1,213.25,4.16Z"/><path class="cls-23" d="M27.08,109.46l-.1.45a8.66,8.66,0,0,1-.58-2.75C27.4,107.7,26.86,108.69,27.08,109.46Z"/><path class="cls-24" d="M36.28,52.07c.06,1-.66,1.48-1.23,2.08A3.26,3.26,0,0,1,36.28,52.07Z"/><path class="cls-7" d="M4,143.73l0-.3c.55-.39,1-1,1.76-1A3.52,3.52,0,0,1,4,143.73Z"/><path class="cls-25" d="M77.3,20.93a1.78,1.78,0,0,1-1.84.58c-.09-.11-.06-.2.07-.25C76.14,21.25,76.65,20.72,77.3,20.93Z"/><path class="cls-26" d="M75.53,21.26a1.82,1.82,0,0,0-.07.25c-.51,0-.89.5-1.44.36C74.3,21.12,74.92,21.22,75.53,21.26Z"/><path class="cls-27" d="M32.1,59.57A1.48,1.48,0,0,1,31.46,61,1.61,1.61,0,0,1,32.1,59.57Z"/><path class="cls-9" d="M178.51,26.66A1.48,1.48,0,0,1,180,26,1.63,1.63,0,0,1,178.51,26.66Z"/><path class="cls-27" d="M32.7,58.37a1,1,0,0,1-.6,1.19A1.52,1.52,0,0,1,32.7,58.37Z"/><path class="cls-28" d="M137.51,57.44a5.19,5.19,0,0,0-.31.5c-.71,1.62-1.83,2.21-3.7,2.21-6.37,0-12.25,7.12-8.92,14.95a14.4,14.4,0,0,1-2.31,2.5c-3,3.06-6.11,6.1-9.14,9.16-.62.63-1.18,1.09-2,.33a17.59,17.59,0,0,0-24.78,8l-.63,1.35a8,8,0,0,0-.94,3.4c-.19,1.36-1,1.71-2.1,1.8a101.88,101.88,0,0,0-10.29,1.45c-1.24.24-2.57,0-3.77.55-1.72.25-3.45.44-5.16.76a1.45,1.45,0,0,1-1.71-.78,8.57,8.57,0,0,0-3-3,12,12,0,0,0-3.86-1.53,10.5,10.5,0,0,0-10.53,4.23c-.37.2-.9.61-1.07-.06-.52-2.1-1.5-4.21-.25-6.39,2-1,2.6-2.68,2.44-4.81a40.85,40.85,0,0,1,.7-8.4c.64-2.8,1.29-5.59,2-8.36A52.62,52.62,0,0,1,58,57.49,56.18,56.18,0,0,1,74.46,44.28a3.14,3.14,0,0,1,1-.34,22.57,22.57,0,0,0,4.72-2,4.29,4.29,0,0,1,1.68-.73l7.8-2a2.28,2.28,0,0,1,.51-.09A79.12,79.12,0,0,1,103,38.48a52.75,52.75,0,0,1,24.71,8.41c.5.32,1,.63,1.49,1a3.89,3.89,0,0,0,4.83.36,2.18,2.18,0,0,1,2,.54,34,34,0,0,1,3.37,3.09,1.65,1.65,0,0,1,.44,2l0,.06A32.29,32.29,0,0,0,137.51,57.44Z"/><path class="cls-28" d="M143.74,61a1.46,1.46,0,0,1,.61-.87c.45-.68.92-.88,1.49-.11.3.4.6.79.91,1.18,1.24,1.93,2.63,3.77,3.11,6.08-.41.62-1.2,1-1.3,1.82a7.33,7.33,0,0,0-.17,2.38,15.78,15.78,0,0,0,1.4,4.33,51.41,51.41,0,0,1,2.29,20.32A54.05,54.05,0,0,1,147,115.06a39.18,39.18,0,0,1-2.18,3.9c-1.43,2.07-2.86,4.13-4.33,6.17a8.08,8.08,0,0,1-.93,1.1,19.45,19.45,0,0,0-1.86,1.77c-.9.88-1.79,1.78-2.67,2.67a7.06,7.06,0,0,0-1.19,1.37,45.1,45.1,0,0,1-12.44,8.05,13,13,0,0,0-3,1.26,34.16,34.16,0,0,1-6.15,2.13c-2.62.55-5.27.9-7.88,1.45-4.74,0-9.5.63-14.19-.55-3.34-.85-6.68-1.71-10-2.72a48.48,48.48,0,0,1-15-8.6,68.23,68.23,0,0,1-8.59-8.66,2.42,2.42,0,0,0-2.49-.52,2.28,2.28,0,0,1-3-1.35c-.09-.17-.22-.33-.31-.51-.31-.59-1.08-1.17-.67-1.84s1.26-.22,1.9-.1a8.21,8.21,0,0,0,3.78-.35,10.65,10.65,0,0,0,4.85-3,9,9,0,0,0,2.5-4.38c.23-1.12,1.13-.68,1.68-1l16.75-2.41c1.15-.28,2.35,0,3.49-.4.52-.17.81.15,1,.59a14.25,14.25,0,0,0,1.19,2.21c4.29,6.72,11.27,10,18.88,8.28,6.93-1.52,11.39-6,13.42-12.77a16.82,16.82,0,0,0,0-9,15.48,15.48,0,0,0-1.77-4.26,1.19,1.19,0,0,1,.15-1.7q5.56-5.52,11.09-11.09a1.48,1.48,0,0,1,1.76-.28,10.58,10.58,0,0,0,14-11.29c-.23-2.19-1.4-4-2.47-5.82A26.25,26.25,0,0,0,143.74,61Z"/><path class="cls-29" d="M55.7,119.73c-1.4,1-2.93.6-4.43.46-.33,0-.74-.31-1,0s.2.68.36,1,.55.83.76,1.27a1.71,1.71,0,0,0,2.46,1.06,2.43,2.43,0,0,1,3,.74c-.49.35-1,0-1.43-.06a3.13,3.13,0,0,0-3.29,1.27,2.79,2.79,0,0,0,.08,3.36A43.93,43.93,0,0,0,57.85,135a11.42,11.42,0,0,1,1.45,1.5,8.45,8.45,0,0,0,3.31,2.76,84.41,84.41,0,0,0,10.74,6.42,63.18,63.18,0,0,0,12.09,4.2,12.84,12.84,0,0,1,2.71.82,40.05,40.05,0,0,0,6.14.9c2.88.12,5.77.08,8.65,0a35.4,35.4,0,0,0,6.71-1c2.69-.85,5.45-1.41,8.15-2.22,2.53-.06,4.63-1.41,6.81-2.4A62.39,62.39,0,0,0,136,139a12.72,12.72,0,0,0,1.2-1.12,13.37,13.37,0,0,0,1.6-1.68,60.21,60.21,0,0,0,15.28-21.8c.26-.65.6-1.26.85-1.91a17.57,17.57,0,0,0,1.42-4.29,3,3,0,0,1,.12-.43c.49-1.48.7-3,1.25-4.5a23.33,23.33,0,0,0,.85-4.5,61.65,61.65,0,0,0,0-14.11,25,25,0,0,0-.86-4.5,21.79,21.79,0,0,0-.72-2.51c-.89-2.33-1.39-4.78-2.33-7.09-1.06-2.59-1.82-3.1-4.62-3a.45.45,0,0,1-.33-.28,40.56,40.56,0,0,0-3.22-5.9,5.25,5.25,0,0,0-1.56-2.13c1.86-2.81,3.74-5.61,5.58-8.44.53-.83.85-.83,1.47,0a71.37,71.37,0,0,1,8.85,15.12c.46,1,.8,2.12,1.25,3.17.35.38.33.91.54,1.35l0,.55c.78,2,1.19,4.2,1.77,6.3a78,78,0,0,1,1.55,14,68,68,0,0,1-2.11,17.09c-.57,1.59-1,3.22-1.48,4.83a58.06,58.06,0,0,1-6.66,14.25A65.2,65.2,0,0,1,139,145.5c-.73.46-1.37,1.05-2.11,1.5a62.07,62.07,0,0,1-16.72,8.36c-1.69.56-3.42,1-5.14,1.5-3,.61-6,1.24-9,1.55a82.06,82.06,0,0,1-10.87.19,91.43,91.43,0,0,1-12.45-1.75,71,71,0,0,1-16.75-6.59,35.86,35.86,0,0,1-5.36-3.35A82,82,0,0,1,53.34,141,30.24,30.24,0,0,1,50,137.71,63.65,63.65,0,0,1,41.78,127a1,1,0,0,1,.18-1.51c1.95-1.91,3.87-3.85,5.8-5.79.33-.33.69-.63,1.17-.45A15.06,15.06,0,0,0,55.7,119.73Z"/><path class="cls-29" d="M43.15,97c-.85,2.12.2,4.13.4,6.19,0,.35.52,0,.77.09-1.8,2.88-2.57,5.92-1.44,9.25a1.65,1.65,0,0,1-.44,2.41c-.87.73-1.62,1.59-2.43,2.39-.63.64-1.25,1.3-1.94,1.89-.69,0-.62-.64-.89-1a69.53,69.53,0,0,1-5-19.14,65.2,65.2,0,0,1,.61-18.76c.38-2,.9-4.08,1.35-6.12C35,72.16,35.49,70,36.26,67.9A63.36,63.36,0,0,1,47.94,48.17c.39-.51.86-1,1.24-1.47A67.83,67.83,0,0,1,64.47,34.21a63.85,63.85,0,0,1,18.81-7.59c2.87-.65,5.78-1,8.69-1.5a69.1,69.1,0,0,1,23.15,1.56c.58.13,1.14.34,1.71.52,2,.79,4,1.27,6,2,.5.16,1.08.08,1.5.48a69.92,69.92,0,0,1,20.6,13.25c1.15,1.07,1.26,1.81.35,3.07-1.87,2.56-3.57,5.24-5.34,7.88a2,2,0,0,0-.5-1.49c-1.28-1.15-2.55-2.32-3.79-3.51a1.82,1.82,0,0,0-1.37-.39c-.28-.44.1-.73.25-1.07a3.05,3.05,0,0,0-1.13-4.27c-2-1.44-4.09-2.63-6.11-4a3.19,3.19,0,0,0-1.31-.83,2,2,0,0,1-.36-.18,4.34,4.34,0,0,0-1.36-.44A80.75,80.75,0,0,0,111,33.24a8.35,8.35,0,0,0-3.17-.49,70.18,70.18,0,0,0-8.94-.63A58.06,58.06,0,0,0,60.1,46.56,58.66,58.66,0,0,0,39.79,84c-.34,2.41-.4,4.86-.67,7.29a6.92,6.92,0,0,0,.24,2.67,3.19,3.19,0,0,0,2.87,2.64A1.17,1.17,0,0,1,43.15,97Z"/><path class="cls-30" d="M201.24,198.15a3.36,3.36,0,0,0-2.28-3.74,3.47,3.47,0,0,0-4,1.14c-1.05,1.11-2.17,2.15-3.27,3.22-.5.12-.84,1-1.47.41s-1.54-.87-1-2h0a13.46,13.46,0,0,1,1.5-1.52c.76-.79,1.54-1.56,2.28-2.37,1.55-1.69,1.6-3.81.15-5.2s-3.44-1.38-5.17.3c-1.18,1.14-2.36,2.29-3.48,3.49-.85.92-1.33.29-1.94-.28s-1-1.05-.17-1.81c1.21-1.1,2.36-2.29,3.5-3.48,1.62-1.7,1.69-3.69.28-5.21a3.7,3.7,0,0,0-5.11,0c-1.23,1.24-2.55,2.4-3.72,3.69-1,1.13-1.39,0-2-.43s-.77-1,0-1.67c1.22-1.1,2.39-2.27,3.5-3.48,1.6-1.76,1.61-3.95.11-5.33s-3.51-1.25-5.19.39c-1.25,1.22-2.46,2.48-3.68,3.72-.51.49-.89.15-1.26-.21-1.12-1.1-2.2-2.25-3.35-3.33-.63-.59-.58-1.06.05-1.56,3.59-3.58,7.17-7.18,10.77-10.75.42-.42.79-1.14,1.6-.57q9.15,9.2,18.32,18.38c4.15,4.15,8.28,8.31,12.44,12.46a12.57,12.57,0,0,1,1.84,2.69,8.83,8.83,0,0,1,0,6.86l-1.16,1.82a10.49,10.49,0,0,1-3.6,2.84,9.75,9.75,0,0,1-7.5-.14c-.61-.12-1-.6-1.48-.91-.93-.55-.9-1.14-.13-1.83.55-.48,1-1,1.56-1.54.73-.71,1.43-1.46,2.17-2.17A3.63,3.63,0,0,0,201.24,198.15Z"/><path class="cls-31" d="M91.92,102.33c-.23-5.75,4.89-10.65,10.66-10.53a10.57,10.57,0,0,1-.25,21.14A10.45,10.45,0,0,1,91.92,102.33Z"/><path class="cls-32" d="M152.32,143.46c.49,0,.69.34.93.58,4.91,4.9,9.8,9.81,14.72,14.69.67.66.8,1.16.06,1.86-1.31,1.23-2.56,2.51-3.82,3.8-.62.64-1.09.78-1.82,0-4.44-4.55-8.93-9.06-13.41-13.56-.74-.74-2.08-1.35-2-2.27s1.28-1.52,2-2.23c.91-.86,1.85-1.67,2.77-2.5A6.16,6.16,0,0,1,152.32,143.46Z"/><path class="cls-33" d="M204.79,14.08a3.71,3.71,0,0,1-3.51-3.41,3.56,3.56,0,0,1,7.12-.06A3.75,3.75,0,0,1,204.79,14.08Z"/><path class="cls-33" d="M166,31.68a3.62,3.62,0,0,1-3.57,3.62,3.56,3.56,0,0,1,0-7.12A3.74,3.74,0,0,1,166,31.68Z"/><path class="cls-33" d="M130.83,70.62a3.38,3.38,0,0,1,3.37-3.57,3.67,3.67,0,0,1,3.53,3.53,3.71,3.71,0,0,1-3.5,3.58A3.39,3.39,0,0,1,130.83,70.62Z"/><path class="cls-33" d="M10.65,155.35a3.42,3.42,0,0,1-3.46-3.5,3.5,3.5,0,0,1,3.36-3.63,3.73,3.73,0,0,1,3.56,3.54A3.66,3.66,0,0,1,10.65,155.35Z"/><path class="cls-33" d="M49.49,108.65A3.54,3.54,0,1,1,51,112.37a9.14,9.14,0,0,1-.93-.74C49.71,110.68,48.71,109.85,49.49,108.65Z"/><path class="cls-34" d="M82.68,156.85c1.73-.23,3.34.42,5,.74,6,1.14,12.1.91,18.14.6a29.83,29.83,0,0,0,7.31-1.23,7.18,7.18,0,0,1,1.92-.1,44.73,44.73,0,0,1-8.89,1.69,66.59,66.59,0,0,1-22.94-1.46A2.48,2.48,0,0,1,82.68,156.85Z"/><path class="cls-35" d="M171.62,77.51a23.8,23.8,0,0,1,1,5.85,70,70,0,0,1-.32,18.9c-.06.37.06.82-.39,1,.73-5,.56-10.1.58-15.16a39.52,39.52,0,0,0-.84-8.26A12.56,12.56,0,0,1,171.62,77.51Z"/><path class="cls-36" d="M68.63,103.6a1.35,1.35,0,0,1,1.13-.61c4.3-.21,8.47-1.38,12.77-1.58,1.08,0,1.89-.37,2.06-1.81.12-1.07.08-2.39,1.14-3.2-.29,1.45-.6,2.9-.87,4.36a.91.91,0,0,1-.89.82c-5,.68-9.94,1.39-14.91,2.08A1.59,1.59,0,0,1,68.63,103.6Z"/><path class="cls-37" d="M111.14,87.09c1,.48,1.53-.13,2.14-.74q5.64-5.64,11.3-11.25c.13.61-.37.87-.71,1.2q-5.3,5.33-10.62,10.64C112.6,87.59,111.94,88.35,111.14,87.09Z"/><path class="cls-38" d="M177.9,161.64c-.77-.1-1.17.44-1.63.89l-10.63,10.52c-.1-.07-.13-.15-.11-.22s.06-.12.09-.12l11-11.14C177.09,161.12,177.52,160.83,177.9,161.64Z"/><path class="cls-39" d="M170.16,151.08a11.6,11.6,0,0,1,2.71,2.47c.66.66,1.1.9,1.89.1a3.28,3.28,0,0,1,4.05-.7c-1.63-.11-3.15,0-4.28,1.43a.78.78,0,0,1-1.29,0C172.22,153.3,170.92,152.44,170.16,151.08Z"/><path class="cls-40" d="M92,25.12c-1.84,1-4,.46-5.92,1.16a4.74,4.74,0,0,1-2.77.34A28.84,28.84,0,0,1,92,25.12Z"/><path class="cls-41" d="M165.62,172.71l0,.34c-.08.34-.77.54-.32,1a36.83,36.83,0,0,0,4.18,4c.13.09.39,0,.59,0-.4,1-.86.51-1.32.05-1.11-1.11-2.2-2.26-3.36-3.33C164.5,173.94,164.58,173.3,165.62,172.71Z"/><path class="cls-42" d="M198.24,206.55a12.8,12.8,0,0,0,7.77-.07.2.2,0,0,1,.32.05A8,8,0,0,1,198.24,206.55Z"/><path class="cls-43" d="M64.73,111.35A2.29,2.29,0,0,0,63,113.07a6.14,6.14,0,0,1-2.47,3.68c.88-1.61,2.08-3,2.52-4.92C63.25,111.1,64.09,111.24,64.73,111.35Z"/><path class="cls-44" d="M36.26,67.9a21.27,21.27,0,0,1-2.09,6.32A22.16,22.16,0,0,1,36.26,67.9Z"/><path class="cls-10" d="M123.72,161.66a16.14,16.14,0,0,1-6.62,2A54.44,54.44,0,0,1,123.72,161.66Z"/><path class="cls-45" d="M60.57,146.91a42.94,42.94,0,0,1,5.36,3.35A12.76,12.76,0,0,1,60.57,146.91Z"/><path class="cls-46" d="M122.86,29.29c-2-.58-4.18-.94-6-2.09a33.59,33.59,0,0,1,6,1.83c.09,0,.13.1.11.16S122.88,29.29,122.86,29.29Z"/><path class="cls-47" d="M39.9,117.34c.64-.69,1.24-1.41,1.93-2s1.52-1.53,1.05-2.76a1.45,1.45,0,0,1-.1,2.38c-.86.79-1.69,1.63-2.53,2.44A.23.23,0,0,1,39.9,117.34Z"/><path class="cls-48" d="M171.61,106.26a19.14,19.14,0,0,1-1.48,6A19.42,19.42,0,0,1,171.61,106.26Z"/><path class="cls-49" d="M210.5,202a15.72,15.72,0,0,0,0-6.86c.75.53.6,1.34.68,2.08a3.65,3.65,0,0,1,0,2.7C211.1,200.69,211.24,201.51,210.5,202Z"/><path class="cls-50" d="M164.41,77.23a37.06,37.06,0,0,1-1.77-6.3A16.55,16.55,0,0,1,164.41,77.23Z"/><path class="cls-51" d="M201.24,198.15c.11,2.18-1.81,2.95-3,4.24-.09-.07-.13-.14-.1-.22s.06-.12.09-.12C199.25,200.75,200.73,199.82,201.24,198.15Z"/><path class="cls-52" d="M162.37,113.19a11.93,11.93,0,0,1,1.48-4.83A14.41,14.41,0,0,1,162.37,113.19Z"/><path class="cls-53" d="M189.24,197.22c.4,1.72,1,2.08,2.45,1.55-.45.46-.64,1.49-1.64.6C188.76,198.22,188.62,198,189.24,197.22Z"/><path class="cls-54" d="M198.26,202.05c0,.12,0,.23,0,.34a12.73,12.73,0,0,1-1.38,1.46,1.06,1.06,0,0,0-.13,1.79c-1.14-.27-1.19-.92-.5-1.68S197.59,202.69,198.26,202.05Z"/><path class="cls-55" d="M50,137.71A15.19,15.19,0,0,1,53.34,141,8.93,8.93,0,0,1,50,137.71Z"/><path class="cls-56" d="M206.33,206.53l-.32-.05,3.33-2.63A5.84,5.84,0,0,1,206.33,206.53Z"/><path class="cls-57" d="M161.42,131.69a7.14,7.14,0,0,1-2.42,3.58A15.24,15.24,0,0,1,161.42,131.69Z"/><path class="cls-29" d="M137.51,57.44a7.71,7.71,0,0,1,2.35-3.53A13.94,13.94,0,0,1,137.51,57.44Z"/><path class="cls-58" d="M54.85,99.06a5.38,5.38,0,0,1,3.86,1.53Z"/><path class="cls-59" d="M144.91,59.22a2.25,2.25,0,0,1,1.56,2.13,6.22,6.22,0,0,1-.85-1c-.37-.75-.8-.48-1.27-.18C144.32,59.71,144.65,59.48,144.91,59.22Z"/><path class="cls-60" d="M49.49,108.65a7.1,7.1,0,0,0,.61,3C49.46,110.73,48.1,110,49.49,108.65Z"/><path class="cls-61" d="M211.17,200c0-.9,0-1.8,0-2.7C212.12,198.15,211.83,199.05,211.17,200Z"/><path class="cls-62" d="M162,69.2a10.41,10.41,0,0,1-1.18-3.34,6.67,6.67,0,0,1,1.27,2.94A.25.25,0,0,1,162,69.2Z"/><path class="cls-63" d="M39.9,117.34l.35,0-1.8,1.83a.2.2,0,0,1-.32,0A6.11,6.11,0,0,1,39.9,117.34Z"/><path class="cls-64" d="M136.9,147a3.51,3.51,0,0,1,2.11-1.5A3.82,3.82,0,0,1,136.9,147Z"/><path class="cls-53" d="M190.74,195.71a3.12,3.12,0,0,1-1.5,1.52A2.24,2.24,0,0,1,190.74,195.71Z"/><path class="cls-65" d="M38.13,119.15l.32,0c-.77.62-1.06.4-1.27-1C37.6,118.44,37.58,119.09,38.13,119.15Z"/><path class="cls-66" d="M49.18,46.7a2.14,2.14,0,0,1-1.24,1.47A2,2,0,0,1,49.18,46.7Z"/><path class="cls-67" d="M122.86,29.29a1.09,1.09,0,0,1,0-.26c.6,0,1.21-.09,1.49.63C123.76,29.76,123.33,29.42,122.86,29.29Z"/><path class="cls-68" d="M162,69.2l.09-.4a1.46,1.46,0,0,1,.52,1.58C162.17,70.1,162.15,69.61,162,69.2Z"/><path class="cls-48" d="M171.92,104.46a2.65,2.65,0,0,1-.31,1.79C171.59,105.64,171.35,105,171.92,104.46Z"/><path class="cls-1" d="M204.81,111a2.15,2.15,0,0,0-.24.18c-1.9,1.93-2.06,1.52-.06,3.48,1.28,1.27,2.36,2.61,1.48,4.6a3.55,3.55,0,0,1-5.58,1.31c-1-.76-1.53-2-2.77-2.38-1.09.8-1.86,1.94-3,2.71-2,.88-3.76.53-4.79-1s-.75-3.22.65-4.74c2.08-2.25,2.08-2.25,0-4.55-1.54-1.68-1.62-3.76-.18-5.19s3.55-1.34,5.21.22c2.28,2.15,2.28,2.15,4.51,0,1.76-1.67,3.49-1.69,5.42-.08C206.93,107.65,206.8,108.78,204.81,111Z"/><path class="cls-69" d="M204.81,111a5.31,5.31,0,0,1,.52-.86c1.29-1.48.88-3,.11-4.5C207.24,107,206.92,109.75,204.81,111Z"/><path class="cls-70" d="M194.66,120.92a10.29,10.29,0,0,1,3-2.71A7.15,7.15,0,0,1,194.66,120.92Z"/><path class="cls-1" d="M43.15,97c-3.06-.07-4.41-1.33-4.34-4.37C39.38,68.28,50.17,50,71.63,38.31a56.24,56.24,0,0,1,35-6.09c.39.05.79.08,1.19.12a33,33,0,0,0,3.3.58,67,67,0,0,1,13.44,4.51,9.72,9.72,0,0,0,1.21.6h0c.43.43,1.16.31,1.52.86a58.17,58.17,0,0,1,5.83,3.6c2.59,1.84,2.9,3.41,1.11,6a3.77,3.77,0,0,1-4.93,0,52.68,52.68,0,0,0-20.22-8.7c-1.9-.38-3.84-.55-5.75-.81a25.87,25.87,0,0,0-8.95,0c-1.5.27-3.07-.05-4.53.54a.47.47,0,0,1-.26,0,47.85,47.85,0,0,0-7.82,2.05l-1.5.58c-1.63.66-3.19,1.47-4.82,2.09A53.1,53.1,0,0,0,48.55,75.12a43.65,43.65,0,0,0-2,8.42,72.91,72.91,0,0,0-.57,9.91A3.5,3.5,0,0,1,43.15,97Z"/><path class="cls-71" d="M89.87,39.49c.2-.14.4-.38.61-.4,4-.31,8-1.31,12.1-.53.29.06.59.06.77.37A93.37,93.37,0,0,0,89.87,39.49Z"/><path class="cls-72" d="M46.5,83.54a20.51,20.51,0,0,1,2-8.42Z"/><path class="cls-73" d="M81.79,41.59a20.25,20.25,0,0,1,7.82-2.05Z"/><path class="cls-1" d="M87.79,150.82a60.91,60.91,0,0,1-25.43-11.36,28.46,28.46,0,0,1-3.3-2.71,78.92,78.92,0,0,1-6.39-6.67c-1.63-2-1.85-3.47-.79-5s2.77-1.71,5-.86a74,74,0,0,0,8.61,8.65A53.65,53.65,0,0,0,80,141.28a62.38,62.38,0,0,0,9.87,2.7c4.85.93,9.74.7,14.63.56a37.18,37.18,0,0,0,7.83-1.47,49,49,0,0,0,6-2.06,24.85,24.85,0,0,0,3-1.22,51.73,51.73,0,0,0,12.3-8.06,14.79,14.79,0,0,0,1.42-1.32l2.37-2.37a16.22,16.22,0,0,0,1.87-2l.85-.93a34.84,34.84,0,0,0,4.19-6,55.59,55.59,0,0,0,6.34-16.16,53.67,53.67,0,0,0,.59-19.16,77.81,77.81,0,0,0-1.82-8c-.44-1.42-1-2.82-1.48-4.21a3.63,3.63,0,0,1,.31-2.7,3.54,3.54,0,0,1,1.78-1.5,3.48,3.48,0,0,1,4.58,2.12,57.09,57.09,0,0,1,2.61,8.07c.37,1.47.71,3,1.05,4.43a50.09,50.09,0,0,1,.76,9.78,43.62,43.62,0,0,1-.76,9.47c-.46,2.3-1.14,4.55-1.63,6.85h0c-.5,1.5-.93,3-1.5,4.5a57.53,57.53,0,0,1-10.58,18.16,58.69,58.69,0,0,1-5.6,5.77,11.66,11.66,0,0,0-1.83,1.68,56.7,56.7,0,0,1-8.76,6.06,66.45,66.45,0,0,1-8.54,4c-.59.25-1.23.3-1.83.52-2.67.79-5.36,1.52-8.09,2.07a28.28,28.28,0,0,1-6.89,1c-3.87.16-7.76.41-11.61-.4C90.23,151.14,88.94,151.44,87.79,150.82Z"/><path class="cls-74" d="M89.87,144a29.23,29.23,0,0,1-9.87-2.7,59,59,0,0,1,6.65,1.85C87.72,143.42,89,143.11,89.87,144Z"/><path class="cls-75" d="M112.33,143.07c-.77,1.13-2.1.68-3.13,1a9.56,9.56,0,0,1-4.7.47Z"/><path class="cls-76" d="M144.32,119.07a15.43,15.43,0,0,1-4.19,6C141.52,123.08,142.92,121.08,144.32,119.07Z"/><path class="cls-77" d="M148,71.54a9.22,9.22,0,0,1,1.48,4.21A12.1,12.1,0,0,1,148,71.54Z"/><path class="cls-78" d="M121.32,139.79a5.23,5.23,0,0,1-3,1.22A5.82,5.82,0,0,1,121.32,139.79Z"/><path class="cls-79" d="M137.52,128.15l0-.34a8,8,0,0,1,1.8-1.79C139,127,138.21,127.53,137.52,128.15Z"/><path class="cls-80" d="M150,67.34l-1.78,1.5c.05-.91.76-1.23,1.43-1.59Z"/><path class="cls-81" d="M134.79,130.51l.34,0c-.41.51-.75,1.11-1.51,1.18A3.26,3.26,0,0,1,134.79,130.51Z"/><path class="cls-82" d="M158.13,101.47a69.81,69.81,0,0,0,0-19.74c0-.62-.59-1.17-.22-1.84.17.24.46.46.49.71.59,5.1,1.3,10.18.76,15.37-.22,2.11-.59,4.2-.7,6.32,0,.52,0,1-.57,1.29C157.42,102.81,158,102.16,158.13,101.47Z"/><path class="cls-83" d="M118,148.76a83.05,83.05,0,0,0,11.19-5.23,77,77,0,0,0,7.95-5.56c.14-.14.25-.12.34.05a36.56,36.56,0,0,1-7.25,5.36,64.5,64.5,0,0,1-10.2,5.05A3.56,3.56,0,0,1,118,148.76Z"/><path class="cls-84" d="M87.79,150.82a69.83,69.83,0,0,0,13.39.87c2.92-.19,5.83-.57,8.75-.86a1.24,1.24,0,0,1-1,.59c-5.92.65-11.85,1.2-17.78.11C90,151.33,88.72,151.94,87.79,150.82Z"/><path class="cls-65" d="M158.13,101.47c.2.73-.38,1.38-.25,2.11a17.83,17.83,0,0,1-1.23,4.48A25.6,25.6,0,0,1,158.13,101.47Z"/><path class="cls-65" d="M155.16,112.56a12.86,12.86,0,0,1,1.5-4.5A10.4,10.4,0,0,1,155.16,112.56Z"/><path class="cls-85" d="M59.06,136.75a14.13,14.13,0,0,1,3.3,2.71A7.11,7.11,0,0,1,59.06,136.75Z"/><path class="cls-86" d="M157.9,79.89c0,.63.42,1.2.22,1.84a10.84,10.84,0,0,1-.89-4.2A3.75,3.75,0,0,1,157.9,79.89Z"/><path class="cls-87" d="M137.5,138l-.34-.05c.52-.6.94-1.32,1.82-1.48C138.67,137.18,138,137.54,137.5,138Z"/><path class="cls-50" d="M111.14,32.92a5,5,0,0,1-3.3-.58A6.7,6.7,0,0,1,111.14,32.92Z"/><path class="cls-88" d="M127.31,38.89c-.53-.25-1.2-.25-1.52-.86C126.38,38.17,127.09,38.09,127.31,38.89Z"/><path class="cls-88" d="M125.79,38a1.2,1.2,0,0,1-1.21-.6A1.21,1.21,0,0,1,125.79,38Z"/></g></g></g></svg>