<svg xmlns="http://www.w3.org/2000/svg" viewBox="0 0 56.72 60.46"><defs><style>.cls-1{fill:#4359f3;}</style></defs><g id="Layer_2" data-name="Layer 2"><g id="Layer_1-2" data-name="Layer 1"><g id="i0HEEW.tif"><path class="cls-1" d="M34,14c0,4,0,7.9,0,11.86,0,.47.08.62.59.61,2.23,0,4.45,0,6.67,0a1.93,1.93,0,0,1,1.55,3.35L30,44.49a1.92,1.92,0,0,1-3.21,0q-6.42-7.33-12.83-14.66a2,2,0,0,1-.49-2.26,2,2,0,0,1,2-1.12c2.22,0,4.44,0,6.67,0,.47,0,.56-.13.56-.58q0-11.77,0-23.55C22.69.68,23.37,0,25,0h6.85A1.93,1.93,0,0,1,34,2.18Z"/><path class="cls-1" d="M28.32,60.46h-24C1.53,60.46,0,58.94,0,56.2c0-4.69,0-9.37,0-14.05,0-.51.14-.6.61-.6,2.15,0,4.29,0,6.44,0,.46,0,.54.13.53.56,0,3.4,0,6.8,0,10.21,0,.42,0,.59.55.59H48.63c.46,0,.53-.13.53-.55,0-3.41,0-6.81,0-10.21,0-.51.14-.6.61-.6,2.15,0,4.29,0,6.44,0,.46,0,.53.14.53.56q0,7.14,0,14.28a3.79,3.79,0,0,1-4.06,4.06Z"/></g></g></g></svg>