<svg xmlns="http://www.w3.org/2000/svg" viewBox="0 0 303.52 86.64"><defs><style>.cls-1{fill:#fff;}.cls-2{fill:#243462;}.cls-3{fill:#fcfcfc;}</style></defs><g id="Layer_2" data-name="Layer 2"><g id="Layer_1-2" data-name="Layer 1"><path class="cls-1" d="M86.57,43.4c0,1.31-.06,2.6-.17,3.87,0,.24,0,.47-.07.7,0,.48-.11.94-.17,1.4,0,0,0,.08,0,.11,0,.35-.1.68-.15,1s-.06.38-.1.57A43.28,43.28,0,1,1,38.07.49c.51-.07,1-.12,1.53-.17l.41,0c.71-.06,1.42-.1,2.14-.12h2.18a.17.17,0,0,1,.1,0c1.1,0,2.2.1,3.27.21.73.08,1.46.17,2.17.28l1.07.18c.76.12,1.5.28,2.25.46l.91.23c.34.09.69.17,1,.27,1,.29,2,.62,3,1A43.27,43.27,0,0,1,86.57,43.4Z"/><path class="cls-1" d="M113,54.3c-1,0-1.91,0-2.87,0s-1.91,0-2.86,0h0a1.14,1.14,0,0,1-.32,0s0-.1,0-.35c0-2.48,0-5,0-7.46,0-2.89,0-5.77,0-8.66,0-.8-.17-1.61-1.42-1.61h-.17l-.65,0c-.35,0-.43,0-.44,0a4.31,4.31,0,0,1-.07-1.13V33.88c0-.91,0-1.82,0-2.74,0-.09,0-.15,0-.18h.14a3.1,3.1,0,0,1,.54.05,5.6,5.6,0,0,0,.69,0,1.43,1.43,0,0,0,1.1-.42,2.19,2.19,0,0,0,.3-1.55,5.37,5.37,0,0,1,0-.56c.26-4,2.88-6.67,7-7.19.58-.07,1.16-.1,1.77-.14.38,0,.75,0,1.13-.06H117a.55.55,0,0,1,.24,0h0s.06.08,0,.38c-.07,1.4-.07,2.87,0,4.5a1,1,0,0,1,0,.49h0s-.07.06-.4.06h-.2c-2,0-3.14,1.08-3.26,3.22a1.15,1.15,0,0,0,.23.89,1,1,0,0,0,.79.28h3v.11c0,1.47,0,3.07,0,5a.45.45,0,0,1,0,.13h-.07l-.83,0h-1l-.86,0h-.15a1.1,1.1,0,0,0-.83.29,1.32,1.32,0,0,0-.29,1c0,2,0,4,0,5.94V48c0,2,0,4,0,6a1,1,0,0,1,0,.34H113Z"/><path class="cls-1" d="M132.37,54.65c-4.63,0-8.59-2.16-10.58-5.78a13.88,13.88,0,0,1-1-10.09,10.85,10.85,0,0,1,5.29-6.64,12.57,12.57,0,0,1,5.4-1.51c6.74,0,11.35,3.15,12.67,8.64s-.48,10.61-4.67,13.36A13.16,13.16,0,0,1,132.37,54.65ZM127,42a6,6,0,0,0,0,2l0,.18a5.4,5.4,0,0,0,5.18,5h.22a5.61,5.61,0,0,0,5.29-4.48,9.07,9.07,0,0,0-.11-4.65,5.37,5.37,0,0,0-5.21-3.94h-.07a5.3,5.3,0,0,0-5.13,4.1A7.2,7.2,0,0,0,127,42Z"/><path class="cls-1" d="M155.54,54.3c-.88,0-1.75,0-2.63,0-1.07,0-2.13,0-3.19,0h-.23a1.5,1.5,0,0,0,0-.23q0-11.41,0-22.83a1.23,1.23,0,0,1,0-.27h.16l3.08,0c1,0,2,0,3,0h0a.94.94,0,0,1,.25,0s0,.09,0,.27c0,.68,0,1.36,0,2.13v2.43l.9-1.16c1.92-2.5,3.91-3.7,6.44-3.9h.28a1.58,1.58,0,0,0,0,.23c0,2.11,0,4.25,0,6.37a1,1,0,0,1,0,.29h-.31c-.32,0-.63,0-.94,0a11.22,11.22,0,0,0-1.72.11c-3.16.48-4.59,2.1-4.61,5.24s0,7,0,10.82a1.05,1.05,0,0,1-.05.48h0a.82.82,0,0,1-.34,0Z"/><path class="cls-1" d="M178.26,54.64a11.58,11.58,0,0,1-7-2.13c-3.3-2.38-4.8-5.88-4.6-10.7a11.37,11.37,0,0,1,3.92-8.59,12.4,12.4,0,0,1,7.89-2.63c5.3,0,9.39,2.76,10.94,7.36a16,16,0,0,1,.63,5.45c0,.55,0,.57-.54.57-2.53,0-5,0-7.5,0s-5,0-7.44,0h0a1.16,1.16,0,0,0-1.29,1.73,4.69,4.69,0,0,0,3.91,3.77,6.34,6.34,0,0,0,1.2.12,4.24,4.24,0,0,0,3.87-2.23c.1-.16.12-.16.24-.16h6.82a10.67,10.67,0,0,1-8.64,7.31A18.87,18.87,0,0,1,178.26,54.64Zm3.24-13.86c.83,0,1.49,0,1.8-.51s.09-1.08-.26-1.89a4.23,4.23,0,0,0-.5-.84,4.92,4.92,0,0,0-4-1.9,7.34,7.34,0,0,0-1.44.15,4.8,4.8,0,0,0-3.85,3.84,1,1,0,0,0,.1.85,1,1,0,0,0,.85.3h7.3Z"/><path class="cls-1" d="M204.48,54.64l-.81,0a11.17,11.17,0,0,1-8-3.21,7.52,7.52,0,0,1-2-3.73,1,1,0,0,1-.06-.42H194a11.84,11.84,0,0,0,1.19.05h4a1.26,1.26,0,0,1,1.44.94c.53,1.34,2.21,1.93,3.63,1.93a4.14,4.14,0,0,0,2.4-.67,2.14,2.14,0,0,0,1-1.93,2.24,2.24,0,0,0-1.33-1.82,18.28,18.28,0,0,0-3.59-1.15l-.56-.14a31.1,31.1,0,0,1-3.56-1.06c-2.51-1-3.81-2.44-4.1-4.57a6.3,6.3,0,0,1,2.77-6.44,11.56,11.56,0,0,1,6.45-1.77,11.12,11.12,0,0,1,6.82,2,8.1,8.1,0,0,1,3,5.31h-5.95l-.06-.14a4.19,4.19,0,0,0-3.95-2.67,4,4,0,0,0-1.94.49,2.1,2.1,0,0,0-1.16,1.88,2.05,2.05,0,0,0,1.24,2,13,13,0,0,0,2.92,1l.14,0a32,32,0,0,1,4.9,1.5c2.57,1.08,3.89,2.83,4,5.33a6.06,6.06,0,0,1-3.1,5.79A11.27,11.27,0,0,1,204.48,54.64Z"/><path class="cls-1" d="M225.36,54.3l-2.78,0-3.2,0h-.2s0-.07,0-.16q0-11.46,0-22.92a.9.9,0,0,1,0-.24h.19l3.23,0c.93,0,1.86,0,2.8,0h0a.86.86,0,0,1,.31,0,1.38,1.38,0,0,1,0,.29c0,2.71,0,5.41,0,8.12v6.65c0,2.63,0,5.25,0,7.88a1,1,0,0,1,0,.36h-.34Z"/><path class="cls-1" d="M222.36,27.5a3.54,3.54,0,0,1-3.81-3.62c0-2.08,1.62-3.47,4-3.47a4.12,4.12,0,0,1,2.94,1.15,3.36,3.36,0,0,1,1,2.45c0,2.06-1.66,3.5-4,3.5Z"/><path class="cls-1" d="M243.36,66.25a14.32,14.32,0,0,1-6.77-1.52,9.37,9.37,0,0,1-5.05-6.86s0-.1,0-.13h.12l2.7,0h3.72c.81,2,2.5,3,5.1,3l.68,0a4.84,4.84,0,0,0,4.79-4.41,17.5,17.5,0,0,0,.15-3.25c0-.52,0-1.06,0-1.62l0-1.51-.93,1.19a8.28,8.28,0,0,1-4.5,3.17,10.23,10.23,0,0,1-2.68.36,9.55,9.55,0,0,1-8.77-5.75,14.29,14.29,0,0,1,.37-13.31,9.66,9.66,0,0,1,8.53-5A8.92,8.92,0,0,1,246,32.21a8.52,8.52,0,0,1,1.84,1.89l.9,1.18V33.8c0-.32,0-.62,0-.91a14.28,14.28,0,0,0,0-1.62,1,1,0,0,1,0-.3H249c1,0,2,0,3,0s1.94,0,2.91,0H255a.73.73,0,0,1,.24,0s0,.08,0,.35q0,4.23,0,8.44c0,3.35,0,6.7,0,10,0,.7,0,1.4,0,2.1a27.28,27.28,0,0,1-.18,5.11c-.92,5.53-4.53,8.79-10.17,9.17-.51,0-1,0-1.53,0ZM243,36.17A5.41,5.41,0,0,0,238,39.06a7.22,7.22,0,0,0,.21,7.44,5.46,5.46,0,0,0,4.67,2.62A5.73,5.73,0,0,0,247,47.37a7,7,0,0,0,1.77-4.92l-.07-.56c0-.33-.08-.71-.15-1.08a5.8,5.8,0,0,0-4.46-4.54A6.54,6.54,0,0,0,243,36.17Z"/><path class="cls-1" d="M267.68,54.31c-.94,0-1.89,0-2.83,0l-3.09,0h-.18a1,1,0,0,0,0-.18v-.49q0-15.16,0-30.33a1.84,1.84,0,0,1,0-.23h.19l3,0q1.5,0,3,0h0a1.83,1.83,0,0,1,.27,0s0,.09,0,.26c0,2.38,0,4.76,0,7.2v4.39l.88-1a9.22,9.22,0,0,1,7.11-3.18,9,9,0,0,1,4.24,1c2.83,1.58,4.31,4.22,4.41,7.84.1,3.29.09,6.66.08,9.91,0,1.59,0,3.18,0,4.76v.08h0l-3.19,0c-1,0-2.09,0-3.13,0h-.09V41.71A5.94,5.94,0,0,0,277,37.59,5.1,5.1,0,0,0,273.21,36a5.69,5.69,0,0,0-2,.34,5,5,0,0,0-3.14,4.9c0,4.45,0,8.57,0,12.61,0,.36,0,.45-.05.46h0a.86.86,0,0,1-.29,0Z"/><path class="cls-1" d="M300.7,54.29a16.14,16.14,0,0,1-2.94-.21c-3.65-.67-5.61-3.14-5.66-7.14,0-1,0-2.06,0-3.08v-3c0-1.18,0-2.35,0-3.52a1.16,1.16,0,0,0-.26-.88,1.12,1.12,0,0,0-.82-.28,5.84,5.84,0,0,0-.75.06,6,6,0,0,1-.71.06c-.28,0-.38-.05-.41-.08-.19-.21-.14-.71-.08-1.2a8.49,8.49,0,0,0,.06-.85c0-.42,0-.83,0-1.25s0-1.14,0-1.71a.84.84,0,0,1,0-.3h.29l.39,0,.65,0h.28a1.37,1.37,0,0,0,.28,0,1.07,1.07,0,0,0,.79-.29,1.38,1.38,0,0,0,.3-1.08c0-.76,0-1.53,0-2.3s0-1.37,0-2.06c0-.09,0-.15,0-.18h.14l3.3,0c.94,0,1.89,0,2.83,0h0a.76.76,0,0,1,.22,0,1.45,1.45,0,0,0,0,.23c0,.69,0,1.39,0,2.09s0,1.51,0,2.26a1.32,1.32,0,0,0,.29,1,1.23,1.23,0,0,0,.93.32h.1c.38,0,.76,0,1.13,0h2.45s0,.09,0,.19c0,1.61,0,3.24,0,4.85a1.93,1.93,0,0,1,0,.25h-.11c-.47,0-.85,0-1.24,0h-2.38a1.13,1.13,0,0,0-.88.28,1.11,1.11,0,0,0-.27.85c0,1.27,0,2.56,0,3.85,0,1.72,0,3.44,0,5.15s.77,2.49,2.58,2.56l1.11,0,1.11,0h.13v.14c0,1.68,0,3.38,0,5.07v.15H300.7Z"/><path class="cls-2" d="M86.63,43.46c0,1.3-.11,2.58-.23,3.83,0,.24,0,.47-.07.69,0,.48-.11,1-.17,1.41,0,0,0,.08,0,.11,0,.35-.1.68-.15,1,0,.19-.06.38-.1.57a41,41,0,0,1-10.18,21A49.77,49.77,0,0,1,64.78,81c-.54.33-.82.36-1.24-.26Q57.32,71.47,51,62.32c-.38-.55-.27-.71.27-1a20.29,20.29,0,0,0,8.21-28.74c-.4-.68-.19-1.35-.32-2.19-1.95,1.47-3.78,2.86-5.65,4.21-.46.34-.2.54,0,.83a13,13,0,0,1,2.36,8.4,13.68,13.68,0,0,1-8.21,11.94c-.6.3-1,.36-1.34-.35-.57-1.4-1.61-1.68-3.07-1.68a2.9,2.9,0,0,0-2.93,1.61c-.85,1.5-.94,1.47-2.58.91a13.48,13.48,0,0,1-7-5.25c-.44-.64-.73-.62-1.31-.24-1.41.91-2.83,1.77-4.29,2.6-.48.27-.47.47-.18.91a20,20,0,0,0,9.79,7.9c.54.21.73.34.33.93q-6.06,8.76-12,17.6c-.44.64-.73.54-1.25.23C9.92,73.82,2.56,63.51.5,49.77A43.11,43.11,0,0,1,33.35,1.18a41.46,41.46,0,0,1,6.08-1l.41,0C40.55.08,41.27,0,42,0h0c.73,0,1.45,0,2.17,0h.1c1.1,0,2.2.09,3.29.21C48.3.31,49,.4,49.74.51l1.07.18c.76.12,1.51.28,2.26.46l.91.23,1,.28c1,.28,2,.6,3,1,.53.2,1,.4,1.57.62A43.07,43.07,0,0,1,81.55,22.92,41.43,41.43,0,0,1,86.63,43.46Z"/><path class="cls-1" d="M243.36,66.25a14.32,14.32,0,0,1-6.77-1.52,9.37,9.37,0,0,1-5.05-6.86s0-.1,0-.13h.12l2.7,0h3.72c.81,2,2.5,3,5.1,3l.68,0a4.84,4.84,0,0,0,4.79-4.41,17.5,17.5,0,0,0,.15-3.25c0-.52,0-1.06,0-1.62l0-1.51-.93,1.19a8.28,8.28,0,0,1-4.5,3.17,10.23,10.23,0,0,1-2.68.36,9.55,9.55,0,0,1-8.77-5.75,14.29,14.29,0,0,1,.37-13.31,9.66,9.66,0,0,1,8.53-5A8.92,8.92,0,0,1,246,32.21a8.52,8.52,0,0,1,1.84,1.89l.9,1.18V33.8c0-.32,0-.62,0-.91a14.28,14.28,0,0,0,0-1.62,1,1,0,0,1,0-.3H249c1,0,2,0,3,0s1.94,0,2.91,0H255a.73.73,0,0,1,.24,0s0,.08,0,.35q0,4.23,0,8.44c0,3.35,0,6.7,0,10,0,.7,0,1.4,0,2.1a27.28,27.28,0,0,1-.18,5.11c-.92,5.53-4.53,8.79-10.17,9.17-.51,0-1,0-1.53,0ZM243,36.17A5.41,5.41,0,0,0,238,39.06a7.22,7.22,0,0,0,.21,7.44,5.46,5.46,0,0,0,4.67,2.62A5.73,5.73,0,0,0,247,47.37a7,7,0,0,0,1.77-4.92l-.07-.56c0-.33-.08-.71-.15-1.08a5.8,5.8,0,0,0-4.46-4.54A6.54,6.54,0,0,0,243,36.17Z"/><path class="cls-1" d="M267.68,54.31c-.94,0-1.89,0-2.83,0l-3.09,0h-.18a1,1,0,0,0,0-.18v-.49q0-15.16,0-30.33a1.84,1.84,0,0,1,0-.23h.19l3,0q1.5,0,3,0h0a1.83,1.83,0,0,1,.27,0s0,.09,0,.26c0,2.38,0,4.76,0,7.2v4.39l.88-1a9.22,9.22,0,0,1,7.11-3.18,9,9,0,0,1,4.24,1c2.83,1.58,4.31,4.22,4.41,7.84.1,3.29.09,6.66.08,9.91,0,1.59,0,3.18,0,4.76v.08h0l-3.19,0c-1,0-2.09,0-3.13,0h-.09V41.71A5.94,5.94,0,0,0,277,37.59,5.1,5.1,0,0,0,273.21,36a5.69,5.69,0,0,0-2,.34,5,5,0,0,0-3.14,4.9c0,4.45,0,8.57,0,12.61,0,.36,0,.45-.05.46h0a.86.86,0,0,1-.29,0Z"/><path class="cls-1" d="M178.26,54.64a11.58,11.58,0,0,1-7-2.13c-3.3-2.38-4.8-5.88-4.6-10.7a11.37,11.37,0,0,1,3.92-8.59,12.4,12.4,0,0,1,7.89-2.63c5.3,0,9.39,2.76,10.94,7.36a16,16,0,0,1,.63,5.45c0,.55,0,.57-.54.57-2.53,0-5,0-7.5,0s-5,0-7.44,0h0a1.16,1.16,0,0,0-1.29,1.73,4.69,4.69,0,0,0,3.91,3.77,6.34,6.34,0,0,0,1.2.12,4.24,4.24,0,0,0,3.87-2.23c.1-.16.12-.16.24-.16h6.82a10.67,10.67,0,0,1-8.64,7.31A18.87,18.87,0,0,1,178.26,54.64Zm3.24-13.86c.83,0,1.49,0,1.8-.51s.09-1.08-.26-1.89a4.23,4.23,0,0,0-.5-.84,4.92,4.92,0,0,0-4-1.9,7.34,7.34,0,0,0-1.44.15,4.8,4.8,0,0,0-3.85,3.84,1,1,0,0,0,.1.85,1,1,0,0,0,.85.3h7.3Z"/><path class="cls-1" d="M132.37,54.65c-4.63,0-8.59-2.16-10.58-5.78a13.88,13.88,0,0,1-1-10.09,10.85,10.85,0,0,1,5.29-6.64,12.57,12.57,0,0,1,5.4-1.51c6.74,0,11.35,3.15,12.67,8.64s-.48,10.61-4.67,13.36A13.16,13.16,0,0,1,132.37,54.65ZM127,42a6,6,0,0,0,0,2l0,.18a5.4,5.4,0,0,0,5.18,5h.22a5.61,5.61,0,0,0,5.29-4.48,9.07,9.07,0,0,0-.11-4.65,5.37,5.37,0,0,0-5.21-3.94h-.07a5.3,5.3,0,0,0-5.13,4.1A7.2,7.2,0,0,0,127,42Z"/><path class="cls-2" d="M57.88,84.09c-9.15,3.36-20.52,3.35-29.14,0l5.44-8L42.46,64c.73-1.06,1-1.07,1.66,0L57.05,82.86C57.32,83.25,57.58,83.64,57.88,84.09Z"/><path class="cls-1" d="M204.48,54.64l-.81,0a11.17,11.17,0,0,1-8-3.21,7.52,7.52,0,0,1-2-3.73,1,1,0,0,1-.06-.42H194a11.84,11.84,0,0,0,1.19.05h4a1.26,1.26,0,0,1,1.44.94c.53,1.34,2.21,1.93,3.63,1.93a4.14,4.14,0,0,0,2.4-.67,2.14,2.14,0,0,0,1-1.93,2.24,2.24,0,0,0-1.33-1.82,18.28,18.28,0,0,0-3.59-1.15l-.56-.14a31.1,31.1,0,0,1-3.56-1.06c-2.51-1-3.81-2.44-4.1-4.57a6.3,6.3,0,0,1,2.77-6.44,11.56,11.56,0,0,1,6.45-1.77,11.12,11.12,0,0,1,6.82,2,8.1,8.1,0,0,1,3,5.31h-5.95l-.06-.14a4.19,4.19,0,0,0-3.95-2.67,4,4,0,0,0-1.94.49,2.1,2.1,0,0,0-1.16,1.88,2.05,2.05,0,0,0,1.24,2,13,13,0,0,0,2.92,1l.14,0a32,32,0,0,1,4.9,1.5c2.57,1.08,3.89,2.83,4,5.33a6.06,6.06,0,0,1-3.1,5.79A11.27,11.27,0,0,1,204.48,54.64Z"/><path class="cls-1" d="M113,54.3c-1,0-1.91,0-2.87,0s-1.91,0-2.86,0h0a1.14,1.14,0,0,1-.32,0s0-.1,0-.35c0-2.48,0-5,0-7.46,0-2.89,0-5.77,0-8.66,0-.8-.17-1.61-1.42-1.61h-.17l-.65,0c-.35,0-.43,0-.44,0a4.31,4.31,0,0,1-.07-1.13V33.88c0-.91,0-1.82,0-2.74,0-.09,0-.15,0-.18h.14a3.1,3.1,0,0,1,.54.05,5.6,5.6,0,0,0,.69,0,1.43,1.43,0,0,0,1.1-.42,2.19,2.19,0,0,0,.3-1.55,5.37,5.37,0,0,1,0-.56c.26-4,2.88-6.67,7-7.19.58-.07,1.16-.1,1.77-.14.38,0,.75,0,1.13-.06H117a.55.55,0,0,1,.24,0h0s.06.08,0,.38c-.07,1.4-.07,2.87,0,4.5a1,1,0,0,1,0,.49h0s-.07.06-.4.06h-.2c-2,0-3.14,1.08-3.26,3.22a1.15,1.15,0,0,0,.23.89,1,1,0,0,0,.79.28h3v.11c0,1.47,0,3.07,0,5a.45.45,0,0,1,0,.13h-.07l-.83,0h-1l-.86,0h-.15a1.1,1.1,0,0,0-.83.29,1.32,1.32,0,0,0-.29,1c0,2,0,4,0,5.94V48c0,2,0,4,0,6a1,1,0,0,1,0,.34H113Z"/><path class="cls-1" d="M300.7,54.29a16.14,16.14,0,0,1-2.94-.21c-3.65-.67-5.61-3.14-5.66-7.14,0-1,0-2.06,0-3.08v-3c0-1.18,0-2.35,0-3.52a1.16,1.16,0,0,0-.26-.88,1.12,1.12,0,0,0-.82-.28,5.84,5.84,0,0,0-.75.06,6,6,0,0,1-.71.06c-.28,0-.38-.05-.41-.08-.19-.21-.14-.71-.08-1.2a8.49,8.49,0,0,0,.06-.85c0-.42,0-.83,0-1.25s0-1.14,0-1.71a.84.84,0,0,1,0-.3h.29l.39,0,.65,0h.28a1.37,1.37,0,0,0,.28,0,1.07,1.07,0,0,0,.79-.29,1.38,1.38,0,0,0,.3-1.08c0-.76,0-1.53,0-2.3s0-1.37,0-2.06c0-.09,0-.15,0-.18h.14l3.3,0c.94,0,1.89,0,2.83,0h0a.76.76,0,0,1,.22,0,1.45,1.45,0,0,0,0,.23c0,.69,0,1.39,0,2.09s0,1.51,0,2.26a1.32,1.32,0,0,0,.29,1,1.23,1.23,0,0,0,.93.32h.1c.38,0,.76,0,1.13,0h2.45s0,.09,0,.19c0,1.61,0,3.24,0,4.85a1.93,1.93,0,0,1,0,.25h-.11c-.47,0-.85,0-1.24,0h-2.38a1.13,1.13,0,0,0-.88.28,1.11,1.11,0,0,0-.27.85c0,1.27,0,2.56,0,3.85,0,1.72,0,3.44,0,5.15s.77,2.49,2.58,2.56l1.11,0,1.11,0h.13v.14c0,1.68,0,3.38,0,5.07v.15H300.7Z"/><path class="cls-1" d="M155.54,54.3c-.88,0-1.75,0-2.63,0-1.07,0-2.13,0-3.19,0h-.23a1.5,1.5,0,0,0,0-.23q0-11.41,0-22.83a1.23,1.23,0,0,1,0-.27h.16l3.08,0c1,0,2,0,3,0h0a.94.94,0,0,1,.25,0s0,.09,0,.27c0,.68,0,1.36,0,2.13v2.43l.9-1.16c1.92-2.5,3.91-3.7,6.44-3.9h.28a1.58,1.58,0,0,0,0,.23c0,2.11,0,4.25,0,6.37a1,1,0,0,1,0,.29h-.31c-.32,0-.63,0-.94,0a11.22,11.22,0,0,0-1.72.11c-3.16.48-4.59,2.1-4.61,5.24s0,7,0,10.82a1.05,1.05,0,0,1-.05.48h0a.82.82,0,0,1-.34,0Z"/><path class="cls-1" d="M225.36,54.3l-2.78,0-3.2,0h-.2s0-.07,0-.16q0-11.46,0-22.92a.9.9,0,0,1,0-.24h.19l3.23,0c.93,0,1.86,0,2.8,0h0a.86.86,0,0,1,.31,0,1.38,1.38,0,0,1,0,.29c0,2.71,0,5.41,0,8.12v6.65c0,2.63,0,5.25,0,7.88a1,1,0,0,1,0,.36h-.34Z"/><path class="cls-1" d="M222.36,27.5a3.54,3.54,0,0,1-3.81-3.62c0-2.08,1.62-3.47,4-3.47a4.12,4.12,0,0,1,2.94,1.15,3.36,3.36,0,0,1,1,2.45c0,2.06-1.66,3.5-4,3.5Z"/><path class="cls-3" d="M65.43,20.3c-.11.32-.39.43-.61.59L51.51,30.62Q31.83,45,12.18,59.38c-.7.52-1,.44-1.53-.22a24.86,24.86,0,0,0-2.16-2.64c-.55-.56-.5-.87.07-1.39,4-3.58,8-7.2,11.94-10.81Q38.67,27.79,56.8,11.26c.58-.52.84-.55,1.34.07,2.29,2.87,4.63,5.69,7,8.53C65.21,20,65.32,20.16,65.43,20.3Z"/></g></g></svg>