<svg xmlns="http://www.w3.org/2000/svg" viewBox="0 0 66.61 63.98"><defs><style>.cls-1{fill:#4359f3;}</style></defs><g id="Layer_2" data-name="Layer 2"><g id="Layer_1-2" data-name="Layer 1"><path class="cls-1" d="M50.4,64a5.65,5.65,0,0,1-2.94-.89L34.28,55.21l-1-.59q-4.08,2.46-8.18,4.9L22,61.41c-1,.6-2,1.2-3,1.77a5.48,5.48,0,0,1-8.32-4.32A7.79,7.79,0,0,1,11,56.07c.05-.21.11-.41.16-.62q1.63-7.28,3.32-14.55L7.8,35.05,1.89,29.88a6.28,6.28,0,0,1-1.45-2L0,27V24.51l.34-.71A6.25,6.25,0,0,1,2,21.46a6.4,6.4,0,0,1,3.49-1.28L18,19.08l3.64-.33,3.56-8.36,2.92-6.84A5.41,5.41,0,0,1,33.25,0h0a5.39,5.39,0,0,1,5.15,3.55l2.23,5.22q2.13,5,4.25,10l8.88.8,4,.36c1.32.11,2.64.23,4,.37a5.48,5.48,0,0,1,3.05,9.51C60.6,33.5,56.34,37.23,52.11,40.9c1,4.4,2,8.77,3,13.13l.69,3a5.5,5.5,0,0,1-4.71,6.88A5.32,5.32,0,0,1,50.4,64ZM33.32,50a3.08,3.08,0,0,1,1.68.53c.49.32,1,.62,1.5.91l13.22,7.91c.5.3.69.27.75.26a1.33,1.33,0,0,0,.93-.48A1.38,1.38,0,0,0,51.52,58l-.68-3c-1-4.48-2-9-3.08-13.44A3.57,3.57,0,0,1,49,37.78c4.29-3.72,8.62-7.51,12.86-11.27a.89.89,0,0,0,.28-1.1c-.2-.58-.46-.72-.89-.77-1.29-.14-2.59-.25-3.88-.36l-4-.36c-3.15-.29-6.29-.58-9.44-.85A3.24,3.24,0,0,1,41.12,21c-1.48-3.51-3-7-4.47-10.51L34.42,5.27c-.35-.82-.72-.9-1.13-.88s-.77.07-1.11.87l-2.92,6.86q-1.92,4.46-3.81,8.93a3.07,3.07,0,0,1-2.71,2q-2.16.18-4.32.39L5.9,24.55a2,2,0,0,0-1.13.33,2.17,2.17,0,0,0-.38.63v.43a2.15,2.15,0,0,0,.39.63q3,2.59,5.92,5.18,3.54,3.12,7.1,6.22a3.23,3.23,0,0,1,1.1,3.33q-1.75,7.55-3.45,15.11c-.06.27-.14.55-.21.82A4.35,4.35,0,0,0,15,58.47a1.2,1.2,0,0,0,.58,1,1.27,1.27,0,0,0,1.21-.1c1-.56,1.94-1.14,2.9-1.72l3.17-1.9,8.83-5.29A3.13,3.13,0,0,1,33.32,50Z"/></g></g></svg>