<svg xmlns="http://www.w3.org/2000/svg" viewBox="0 0 724.31 641.73"><defs><style>.cls-1{fill:#e1e1e1;}.cls-2{fill:#fff;}.cls-3{fill:none;stroke:#e1e1e1;stroke-miterlimit:10;stroke-width:1.36px;}.cls-4{fill:#1e2e34;}.cls-5{fill:#9edbe9;}.cls-6{fill:#3f5963;}.cls-7{fill:#3375ad;}.cls-8{fill:#bf6d63;}.cls-9{fill:#924d44;}.cls-10{fill:#cb7b64;}.cls-11{fill:#834436;}.cls-12{fill:#50aed0;}.cls-13{fill:#fafafa;}.cls-14{fill:#3374ad;}.cls-15{opacity:0.3;}.cls-16{fill:#ff7e66;}.cls-17{fill:#ffc4a3;}.cls-18{fill:#ffa275;}</style></defs><g id="Layer_2" data-name="Layer 2"><g id="Layer_1-2" data-name="Layer 1"><path class="cls-1" d="M631.61,597h4.63l10.09-14.07V573.7s7.15-.44,6.31,11.65.07,9,.07,9,15.18.06,16.44,1.38c.92,1,1.33,16,1.49,24.21.08,4.12-2.44,7.94-6.27,8.92a6.67,6.67,0,0,1-1.64.22c-3.78,0-23.13-3.08-23.13-3.08h-8Z"/><polygon class="cls-1" points="618.37 594.46 621.22 626.1 629.14 626.1 629.14 595.1 618.37 594.46"/><path class="cls-1" d="M367,47.7,386.9,76.19a5.38,5.38,0,0,0,8.91-.15l19.28-29.63Z"/><rect class="cls-1" x="345.91" width="87.26" height="63.46" rx="15.67"/><path class="cls-2" d="M406.63,25.9c-2.8-5.11-7.44-5.91-10.56-4.74a10.73,10.73,0,0,0-5.15,4.74,10.68,10.68,0,0,0-5.14-4.74c-3.12-1.17-7.76-.37-10.56,4.74-5.83,10.67,15.7,24.56,15.7,24.56S412.46,36.57,406.63,25.9Z"/><path class="cls-1" d="M118.82,539.66h46a18.5,18.5,0,0,1,18.5,18.5v23.33a18.5,18.5,0,0,1-18.5,18.5h-12l-8.46,12.1a5.1,5.1,0,0,1-8.46-.14l-7.79-12h-9.23a18.5,18.5,0,0,1-18.5-18.5V558.16A18.5,18.5,0,0,1,118.82,539.66Z"/><polygon class="cls-2" points="140.16 558.19 140.16 581.99 123.12 570.09 140.16 558.19"/><path class="cls-2" d="M163,583.87S161.83,567,148.3,566.71h-8.64V574l8.51.12S157.09,573.89,163,583.87Z"/><circle class="cls-1" cx="144.47" cy="288.86" r="12.18" transform="translate(-169.92 362.81) rotate(-76.67)"/><path class="cls-1" d="M144.47,299.56a20.83,20.83,0,0,0-20.83,20.83H165.3A20.84,20.84,0,0,0,144.47,299.56Z"/><path class="cls-1" d="M515.07,30.55a8.47,8.47,0,1,1-8.47-8.47A8.47,8.47,0,0,1,515.07,30.55Z"/><path class="cls-1" d="M538.58,50.37a8.48,8.48,0,1,1-8.48-8.47A8.48,8.48,0,0,1,538.58,50.37Z"/><path class="cls-1" d="M515.21,70.59a8.48,8.48,0,1,1-8.48-8.47A8.48,8.48,0,0,1,515.21,70.59Z"/><polyline class="cls-3" points="506.6 30.55 530.1 50.37 506.73 70.59"/><path class="cls-1" d="M690.64,258.67c-3.66-6.68-9.72-7.72-13.8-6.2-4.43,1.66-6.73,6.2-6.73,6.2s-2.3-4.54-6.73-6.2c-4.08-1.52-10.15-.48-13.81,6.2-7.63,14,20.54,32.12,20.54,32.12S698.28,272.63,690.64,258.67Z"/><path class="cls-1" d="M657.33,323.73c-2.61-4.77-6.93-5.51-9.83-4.42a10,10,0,0,0-4.8,4.42,10,10,0,0,0-4.8-4.42c-2.9-1.09-7.22-.35-9.83,4.42-5.44,9.94,14.63,22.88,14.63,22.88S662.77,333.67,657.33,323.73Z"/><path class="cls-2" d="M693.63,43.27H583.82a24.37,24.37,0,0,0-24.37,24.38V134.2a24.38,24.38,0,0,0,24.37,24.38h33.94l19,27.2a6.4,6.4,0,0,0,10.61-.17l17.59-27h28.64A24.38,24.38,0,0,0,718,134.2V67.65A24.37,24.37,0,0,0,693.63,43.27Z"/><path class="cls-4" d="M693.63,43.27s.27,0,.82,0a18.13,18.13,0,0,1,2.42.16,22.84,22.84,0,0,1,8.92,3,24.4,24.4,0,0,1,12.38,20.27c.11,3.4.05,7,.08,10.78,0,15.18.06,33.5.09,54.32a33.12,33.12,0,0,1-.63,8,23.68,23.68,0,0,1-3.14,7.61,24.74,24.74,0,0,1-13.27,10.4,27.32,27.32,0,0,1-8.78,1.24h-9L665,159l.34-.18q-4.94,7.56-10.07,15.48-2.58,4-5.19,8c-.9,1.34-1.7,2.68-2.69,4a6.77,6.77,0,0,1-4.37,2.54,6.86,6.86,0,0,1-5-1.21,7.43,7.43,0,0,1-1.79-1.88l-1.42-2-5.74-8.2-11.69-16.72.35.19H585.39a31.36,31.36,0,0,1-6.89-.59A26.4,26.4,0,0,1,572,156a24.93,24.93,0,0,1-13-22.25c0-17.47,0-34.31,0-50.36,0-4,0-8,0-11.89,0-2,0-3.88.1-5.85,0-1,.27-1.94.39-2.9s.45-1.89.75-2.81a25.28,25.28,0,0,1,5.88-9.65,24.55,24.55,0,0,1,9.22-5.9,16.78,16.78,0,0,1,2.59-.78,19.64,19.64,0,0,1,2.63-.49,40.49,40.49,0,0,1,5.25-.23l10.13,0,19,0,57.5.13,15.63.08,4.06,0c.92,0,1.39.05,1.39.05s-.47,0-1.39,0l-4.06,0-15.63.09-57.5.13-19,0H585.87a40.34,40.34,0,0,0-5.16.23,22.6,22.6,0,0,0-2.56.48,19,19,0,0,0-2.51.76,24.08,24.08,0,0,0-8.94,5.75A24.67,24.67,0,0,0,561,60.21c-.29.88-.49,1.8-.72,2.72s-.33,1.86-.37,2.81c-.13,1.88-.08,3.84-.09,5.79q0,5.86,0,11.89c0,16,0,32.89,0,50.36a24.08,24.08,0,0,0,12.58,21.5,25.41,25.41,0,0,0,6.24,2.3,29.22,29.22,0,0,0,6.7.57H618l.13.18,11.69,16.72,5.73,8.2,1.42,2a6.43,6.43,0,0,0,1.59,1.69,6,6,0,0,0,4.35,1.06,5.91,5.91,0,0,0,3.84-2.22c.9-1.25,1.76-2.68,2.64-4l5.2-8,10.09-15.48.11-.18h27.75a26.83,26.83,0,0,0,8.55-1.18A24.14,24.14,0,0,0,714,146.94a23.22,23.22,0,0,0,3.07-7.38,33,33,0,0,0,.63-7.8c0-20.82.06-39.14.09-54.32,0-3.79.07-7.4,0-10.76a24.21,24.21,0,0,0-12.08-20.07,24.9,24.9,0,0,0-11.21-3.27C693.9,43.31,693.63,43.27,693.63,43.27Z"/><polygon class="cls-5" points="641.86 78.69 641.86 124.18 674.41 101.43 641.86 78.69"/><path class="cls-5" d="M598.28,127.77s2.16-32.32,28-32.8h16.52v13.88l-16.28.24S609.49,108.7,598.28,127.77Z"/><rect class="cls-2" x="0.35" y="3.78" width="272.66" height="221.38" rx="23.06" transform="translate(273.36 228.95) rotate(180)"/><path class="cls-6" d="M125.72,218.39c-2.79,6.78-56.88,57.6-56.88,57.6v-57.6Z"/><path class="cls-4" d="M191.87,100.94c.13-11.55,1.95-23.06,1.51-34.6S189.9,42.78,181.85,34.5s-22-11.44-31.46-4.76l-1.93,9.83,11.13,133.58c.48,5.85,1,11.87,3.68,17.1s8,9.55,13.85,9.19c7.67-.47,12.7-8.24,15.08-15.54C200.84,157.44,191.53,128.77,191.87,100.94Z"/><path class="cls-7" d="M164.09,41.06a32.29,32.29,0,0,0-5.87-8c-2.47-2.2-5.84-3.65-9.09-3a4.55,4.55,0,0,0-3.6,2.63c-.51,1.47.58,3.43,2.14,3.31l.33.28q5.19,4.59,10.55,9a9,9,0,0,0,2.95,1.82,3.12,3.12,0,0,0,3.22-.69C166,45,165.07,42.72,164.09,41.06Z"/><path class="cls-4" d="M170.62,52.4c-11.51-14.07-27-22.17-45.14-22.47-10.25-.17-14.49,2-21.88,4s-14,6-18.44,12.2c-5.24,7.43-9.63,15.74-10.62,24.77-1,9.27-2,18.61-1.33,27.92s3.22,18.67,8.7,26.22l23.68,4.11c13.07.45,26.32.88,39.06-2.1s25.11-9.84,31.94-21C186.06,90.5,182.13,66.46,170.62,52.4Z"/><path class="cls-8" d="M105.49,171.14c.16-8.31.44-18.73.44-18.69s-19.3-2.12-24.64-26.86c-2.65-12.31-3.14-32.69-3-49.38.12-15,12.92-35.49,31.47-35.55l8.24-1,31.56,12.54a8.8,8.8,0,0,1,8.35,8.48l1.19,108.79-20.22,33.77-36.19-28Z"/><path class="cls-9" d="M118.4,119.8a5.21,5.21,0,0,0-1.82-3.25,5.38,5.38,0,0,0-6.53-.38,7.23,7.23,0,0,0-2.74,6.77h0a6.55,6.55,0,0,0,4.7,2.72,6.42,6.42,0,0,0,.88,0,5.9,5.9,0,0,0,4-1.57A5.2,5.2,0,0,0,118.4,119.8Z"/><path class="cls-4" d="M88.24,95.49a3.2,3.2,0,0,0,3.26,3.06,3.05,3.05,0,0,0,3.14-3.06,3.21,3.21,0,0,0-3.26-3.07A3.07,3.07,0,0,0,88.24,95.49Z"/><path class="cls-4" d="M83.94,84.55c.42.4,2.74-1.53,6.19-1.71s6.06,1.4,6.41,1c.18-.2-.27-.93-1.41-1.67A8.78,8.78,0,0,0,90,80.85a8.45,8.45,0,0,0-4.9,1.88C84.05,83.6,83.73,84.37,83.94,84.55Z"/><path class="cls-4" d="M106.07,111.56c0-.19-2.15-.45-5.65-.7-.88,0-1.72-.17-1.9-.76a4.42,4.42,0,0,1,.44-2.64l2.23-6.84c3.09-9.73,5.28-17.72,4.88-17.84s-3.21,7.67-6.3,17.4q-1.11,3.6-2.12,6.88a5.08,5.08,0,0,0-.27,3.47,2.18,2.18,0,0,0,1.52,1.21,6.38,6.38,0,0,0,1.5.13C103.9,111.86,106.07,111.76,106.07,111.56Z"/><path class="cls-9" d="M105.93,152.45a63.62,63.62,0,0,0,32.94-10.75s-8,17.79-33.07,16.83Z"/><path class="cls-4" d="M116.34,113.39c-.56,0-.36,3.74-3.42,6.57s-7,2.63-7.06,3.16c0,.23.93.67,2.62.63a9.37,9.37,0,0,0,5.9-2.43,8.16,8.16,0,0,0,2.63-5.49C117.06,114.26,116.59,113.35,116.34,113.39Z"/><path class="cls-4" d="M85.11,72.49c.63.81,3.23.1,6.33.19s5.69.76,6.33,0c.28-.39-.1-1.19-1.22-2a9.29,9.29,0,0,0-5.09-1.5,9.19,9.19,0,0,0-5.1,1.37C85.23,71.3,84.84,72.09,85.11,72.49Z"/><path class="cls-4" d="M127.43,94.65a3.2,3.2,0,0,1-3,3.29,3.05,3.05,0,0,1-3.35-2.83,3.21,3.21,0,0,1,3-3.29A3.06,3.06,0,0,1,127.43,94.65Z"/><path class="cls-4" d="M130.55,83.22c-.39.42-2.85-1.33-6.3-1.26s-5.94,1.84-6.33,1.42c-.18-.18.21-.95,1.3-1.77a8.86,8.86,0,0,1,5-1.65,8.47,8.47,0,0,1,5,1.52C130.37,82.28,130.74,83,130.55,83.22Z"/><path class="cls-4" d="M128.48,72.18c-.67.8-3.34,0-6.54,0s-5.9.63-6.54-.18c-.28-.39.13-1.19,1.3-2a9.82,9.82,0,0,1,5.3-1.37,9.71,9.71,0,0,1,5.24,1.48C128.39,71,128.77,71.79,128.48,72.18Z"/><path class="cls-8" d="M153.61,102.66c-.1-1.86,1.81-6.36,3.63-6.75,4.86-1,13.72-1.12,14.48,11.32,1.05,17-16.25,14.55-16.31,14.07S154,109.07,153.61,102.66Z"/><path class="cls-9" d="M159.72,114.79c.08-.06.31.19.83.39a3,3,0,0,0,2.22-.09c1.75-.77,3.09-3.72,3-6.79a9.69,9.69,0,0,0-1.09-4.19,3.43,3.43,0,0,0-2.37-2.14,1.51,1.51,0,0,0-1.69.92c-.2.49-.07.83-.16.86s-.38-.26-.29-1a1.87,1.87,0,0,1,.6-1.11,2.24,2.24,0,0,1,1.62-.53,4.16,4.16,0,0,1,3.25,2.44,10.11,10.11,0,0,1,1.32,4.68c.1,3.44-1.45,6.75-3.87,7.61a3.17,3.17,0,0,1-2.74-.28C159.78,115.2,159.67,114.83,159.72,114.79Z"/><path class="cls-4" d="M157.93,96l-4.32,4.48C135,82.58,98.47,37.85,100.51,40.51c0,0,12.79-5.25,26.66-2.89s40.2,9.31,39.8,25.68S157.93,96,157.93,96Z"/><path class="cls-6" d="M182.65,92.2a4.28,4.28,0,0,0-.26-1,16.63,16.63,0,0,0-1.16-2.68,24.79,24.79,0,0,0-7.11-8c-3.61-2.8-8.61-5.09-14.31-6.89s-12.11-3.29-18.4-6a83.06,83.06,0,0,1-16.81-9.42,86.64,86.64,0,0,1-11.86-10.37,93.87,93.87,0,0,1-6.86-8.14l-1.71-2.34a4,4,0,0,0-.64-.79,5.47,5.47,0,0,0,.5.89c.35.56.86,1.4,1.58,2.44a76.88,76.88,0,0,0,6.68,8.37,83.74,83.74,0,0,0,11.84,10.59,81.55,81.55,0,0,0,16.94,9.57c6.38,2.74,12.84,4.16,18.5,6s10.6,3.93,14.18,6.61a25.48,25.48,0,0,1,7.18,7.67C182.18,90.88,182.56,92.24,182.65,92.2Z"/><path class="cls-6" d="M177.7,94.88a9,9,0,0,0-.66-3.72,17.43,17.43,0,0,0-6.39-8c-3.55-2.65-8.62-4.29-14.2-5.56A84.15,84.15,0,0,1,138.81,72a74.59,74.59,0,0,1-15.72-9.7,77.14,77.14,0,0,1-10.78-10.6,79.88,79.88,0,0,1-6-8.26l-1.44-2.38a3.91,3.91,0,0,0-.56-.81,3.87,3.87,0,0,0,.4.89L106,43.6a69.08,69.08,0,0,0,5.82,8.48,73.64,73.64,0,0,0,10.75,10.83,74,74,0,0,0,15.87,9.88,82,82,0,0,0,17.82,5.58c5.57,1.23,10.53,2.78,14,5.29a17.54,17.54,0,0,1,6.43,7.62A21,21,0,0,1,177.7,94.88Z"/><path class="cls-6" d="M157.37,124.76c0-.12,1.44-.31,4-1a24.42,24.42,0,0,0,9.52-5.32c3.51-3,6.64-7.79,8.84-13.53a59.5,59.5,0,0,0,3.69-19.63A50.61,50.61,0,0,0,182.56,75a47.63,47.63,0,0,0-11.63-22.94c-6.33-6.92-11.61-9.71-11.42-10a4.16,4.16,0,0,1,.94.49c.59.37,1.5.86,2.57,1.63a51.61,51.61,0,0,1,8.49,7.3,48.53,48.53,0,0,1,9.18,13.85,46.06,46.06,0,0,1,3.81,20,59,59,0,0,1-3.84,20c-2.31,5.85-5.59,10.69-9.28,13.75a23.68,23.68,0,0,1-9.94,5.15,22.81,22.81,0,0,1-3,.48A3.56,3.56,0,0,1,157.37,124.76Z"/><path class="cls-6" d="M51.24,198.44l.43-.54c18.74-19.84,53.23-26.48,53.23-26.48s2.11,13,21.45,14.44,33.54-18.25,33.54-18.25l25.8,3.61s13,1.53,21.07,6.29c18.21,10.71,27.87,47.66,27.87,47.66L35.69,226Z"/><path class="cls-4" d="M33.05,3.78s-.47.05-1.39.1L29.94,4c-.68.06-1.46.22-2.36.35a32.23,32.23,0,0,0-14.43,6.39A32.58,32.58,0,0,0,.81,32.4a64.33,64.33,0,0,0-.27,7.82c0,2.72,0,5.52,0,8.41q0,8.67,0,18.4c0,25.93.06,57.29.09,93.07q0,13.41,0,27.64c0,2.36,0,4.77.13,7.13a34.19,34.19,0,0,0,1.29,7,32.48,32.48,0,0,0,7.27,12.54A34,34,0,0,0,15,219.3a33.53,33.53,0,0,0,6.7,3.41l1.78.65,1.84.47a28,28,0,0,0,3.76.69c1.26.2,2.55.17,3.83.26H69.23v.4c0,16.06,0,33.22,0,50.82l-.69-.29q12.63-11.91,25.65-24.57c8.62-8.47,17.45-17.07,25.87-26.25l.13-.14H236.67c2.14,0,4.26,0,6.35-.14a32.25,32.25,0,0,0,27.8-21.68,35.33,35.33,0,0,0,1.77-12.08v-12.3c0-32.67,0-64.18,0-94.2q0-22.52,0-43.87A51.9,51.9,0,0,0,272,30a33.91,33.91,0,0,0-3.65-9.59A31.47,31.47,0,0,0,262,12.54a31.12,31.12,0,0,0-8.3-5.47,31.63,31.63,0,0,0-9.4-2.67,89.71,89.71,0,0,0-9.7-.28H215.65L180,4.08,72.48,4,43.24,3.87l-7.6-.05c-1.71,0-2.59,0-2.59,0s.88,0,2.59,0l7.6-.05,29.24-.08L180,3.48l35.64,0H234.6a86.85,86.85,0,0,1,9.78.27A32.38,32.38,0,0,1,254,6.42,33.35,33.35,0,0,1,269,20a34.6,34.6,0,0,1,3.75,9.81,53.21,53.21,0,0,1,.67,10.62q0,21.33,0,43.87c0,30,0,61.53,0,94.2v12.3a36.14,36.14,0,0,1-1.81,12.35,33.1,33.1,0,0,1-28.53,22.26c-2.16.15-4.29.16-6.42.14H120.39l.32-.14c-8.46,9.21-17.29,17.81-25.92,26.27s-17.25,16.64-25.67,24.57l-.68.65V276c0-17.6,0-34.76,0-50.82l.39.39-32,0H32.91c-1.31-.09-2.62-.06-3.91-.27a28.87,28.87,0,0,1-3.84-.71l-1.89-.49-1.82-.66a34.51,34.51,0,0,1-6.85-3.49,35.11,35.11,0,0,1-5.75-5,33.28,33.28,0,0,1-7.42-12.83,34.84,34.84,0,0,1-1.31-7.19C0,192.48,0,190.11,0,187.74q0-14.22,0-27.64C.06,124.32.09,93,.11,67q0-9.72,0-18.4c0-2.89,0-5.69,0-8.41a61.31,61.31,0,0,1,.3-7.86A32.81,32.81,0,0,1,13,10.53,32.16,32.16,0,0,1,27.56,4.21c.9-.12,1.69-.27,2.37-.32l1.73-.07C32.58,3.78,33.05,3.78,33.05,3.78Z"/><path class="cls-4" d="M470.44,641.73l-195.83-.11C251.06,641.61,232,623.41,232,601l.09-467.85c0-22.46,19.12-40.65,42.68-40.64l195.83.11c23.56,0,42.64,18.21,42.63,40.66l-.09,467.84C513.11,623.55,494,641.75,470.44,641.73Z"/><path class="cls-2" d="M470.38,109.14l-38,0a9.2,9.2,0,0,0-9.22,9.18v6.57A9.19,9.19,0,0,1,414,134l-74,0a9.2,9.2,0,0,1-9.22-9.19v-6.56a9.21,9.21,0,0,0-9.22-9.19H274.94c-16.5,0-29.89,12.73-29.89,28.46L245,594.14c0,15.72,13.37,28.47,29.86,28.48l195.44.1c16.5,0,29.88-12.73,29.89-28.46l.09-456.65C500.23,121.89,486.87,109.14,470.38,109.14Z"/><path class="cls-4" d="M366.09,223a11.14,11.14,0,0,0,.55-22.17A11.59,11.59,0,0,0,353,183.5a13.88,13.88,0,0,0-22.69-7.24,15.61,15.61,0,0,0-18.94,3.24,11.1,11.1,0,0,0-6.08,20.33"/><path class="cls-10" d="M368,224.2a47.3,47.3,0,0,0-54.44-33.91l-2.4.46c-25.65,6.46-34.5,31.84-27.34,57.31l17.95,92.44h0l52.84,40.79,13.68-34.05-5.39-30.77s24.2-8.62,19.76-33.61C380.49,270.79,374.05,246.3,368,224.2Z"/><path class="cls-11" d="M363.07,316.4s-15.74,4-34.49-3.34c0,0,10.81,17,35.26,10Z"/><path class="cls-4" d="M365.75,248.12a3.62,3.62,0,0,1-2.75,4.24,3.46,3.46,0,0,1-4.28-2.51,3.61,3.61,0,0,1,2.74-4.24A3.47,3.47,0,0,1,365.75,248.12Z"/><path class="cls-4" d="M364.93,237.42c-.35.54-3.43-.94-7.26-.2s-6.27,3.19-6.77,2.8c-.25-.17,0-1.09,1.1-2.22a9.91,9.91,0,0,1,5.31-2.81,9.56,9.56,0,0,1,5.89.73C364.55,236.4,365.11,237.17,364.93,237.42Z"/><path class="cls-4" d="M331,255.47a3.63,3.63,0,0,1-2.75,4.25,3.47,3.47,0,0,1-4.28-2.51A3.63,3.63,0,0,1,326.7,253,3.47,3.47,0,0,1,331,255.47Z"/><path class="cls-4" d="M327.41,245.3c-.35.55-3.43-.93-7.26-.19s-6.27,3.19-6.78,2.79c-.24-.16,0-1.09,1.1-2.21a10,10,0,0,1,5.32-2.82,9.56,9.56,0,0,1,5.89.74C327,244.29,327.59,245.05,327.41,245.3Z"/><path class="cls-4" d="M346.72,271.07c-.06-.22,2.25-1.08,6-2.31,1-.29,1.85-.66,1.89-1.36a5.1,5.1,0,0,0-1.21-2.77l-4.31-6.9c-6-9.85-10.6-18-10.21-18.25s5.62,7.54,11.66,17.38l4.19,7c.59,1,1.46,2.18,1.24,3.74a2.51,2.51,0,0,1-1.33,1.74,7.38,7.38,0,0,1-1.62.55C349.18,270.8,346.78,271.28,346.72,271.07Z"/><path class="cls-4" d="M326.09,232c-.32,1.06-3.81.64-7.87,1.27s-7.35,2-7.91,1c-.25-.45.3-1.46,1.61-2.51a12.42,12.42,0,0,1,5.82-2.43,11.9,11.9,0,0,1,6.2.68C325.45,230.71,326.23,231.53,326.09,232Z"/><path class="cls-4" d="M362.82,223.76c-.65,1-4,.73-7.79,1.41s-6.91,1.92-7.83,1.15c-.4-.38-.06-1.35,1.19-2.44a12.62,12.62,0,0,1,6-2.63,12.39,12.39,0,0,1,6.54.57C362.48,222.46,363.09,223.27,362.82,223.76Z"/><path class="cls-10" d="M292.41,271.56a6.88,6.88,0,0,0-8.55-5.13c-4.56,1.33-9.23,4.95-7.1,14.5,3.79,16.94,20,9.64,19.94,9.15C296.65,289.75,294.06,278.63,292.41,271.56Z"/><path class="cls-11" d="M291.59,284.53c-.09,0-.25.27-.7.61a3,3,0,0,1-2.2.54c-1.93-.25-4.07-2.76-4.84-5.79a10,10,0,0,1-.12-4.41,3.49,3.49,0,0,1,1.71-2.76,1.55,1.55,0,0,1,1.93.41c.33.43.3.79.4.8s.29-.37,0-1a1.91,1.91,0,0,0-.9-.91,2.28,2.28,0,0,0-1.73-.06,4.25,4.25,0,0,0-2.5,3.31,10.25,10.25,0,0,0,0,4.95c.87,3.39,3.33,6.2,5.94,6.36a3.25,3.25,0,0,0,2.6-1.06C291.65,285,291.65,284.55,291.59,284.53Z"/><path class="cls-4" d="M347.05,191.44a5.94,5.94,0,0,0-.82-1.1,11.18,11.18,0,0,0-9.41-3.22,41.71,41.71,0,0,0-6.45-1.37,15.11,15.11,0,0,0-25.4,3.73c-.68.23-1.36.49-2,.74a15.44,15.44,0,0,0-21.8,10.91,11.2,11.2,0,0,0-9.36,18.37c-2.73,2.33-4.78,5.88-4.17,9.42.57,3.33,4.23,6,7.35,5,1,8.28,3.67,17.73,5.71,26.13,1.44,5.91,9.71,8,11,12,6.6,20.17,11.18,7.45,5.63-35.85.37-.42.73-.85,1.1-1.34.74-1,.76-2,1.37-3.11.72-1.27,2.5-1.25,4-1.37a11.07,11.07,0,0,0,9.8-10c1.63,1.65,4.56,1,6.24-.59s2.53-3.85,3.7-5.85,3-3.93,5.29-4c1.29-.06,2.62.47,3.86.11,2.2-.62,2.8-3.45,2.71-5.74-.07-1.92-.23-4.09.71-5.67a12.86,12.86,0,0,1,4.1-2.06c.87-.07,1.76-.06,2.61-.09a8.74,8.74,0,0,0,1.21-.16,12.6,12.6,0,0,1,1.67.33c8.22,2.21,17.77,16.57,17.77,16.57C362,203.23,355.09,196,347.05,191.44Z"/><path class="cls-6" d="M269.73,220.82a1,1,0,0,1,.12-.28,7,7,0,0,1,.41-.77,9.6,9.6,0,0,1,2.29-2.44,11.08,11.08,0,0,1,4.85-2.05,10.09,10.09,0,0,1,6.77,1.17l-.43.23a13.72,13.72,0,0,1,5.42-9.88,17.43,17.43,0,0,1,5.76-3,21.21,21.21,0,0,1,6.82-.8,34.64,34.64,0,0,1,12.44,3.19l-.47.25a15.47,15.47,0,0,1,6.16-9.52,14.94,14.94,0,0,1,14.32-1.58,9.11,9.11,0,0,1,1.41.7q.47.27.45.3c0,.05-.66-.32-1.94-.79a15.45,15.45,0,0,0-5.69-.93,14.56,14.56,0,0,0-8.22,2.77,14.94,14.94,0,0,0-5.82,9.18l-.08.41-.39-.16a34.41,34.41,0,0,0-12.19-3.1,20.24,20.24,0,0,0-6.59.76,16.7,16.7,0,0,0-5.54,2.88,13.21,13.21,0,0,0-5.28,9.37l0,.48-.41-.24a9.69,9.69,0,0,0-6.41-1.2,10.83,10.83,0,0,0-4.72,1.85A11.76,11.76,0,0,0,269.73,220.82Z"/><path class="cls-6" d="M336,197.5a4.35,4.35,0,0,1-.17.71,15.16,15.16,0,0,0-.26,2.09c-.06.92-.07,2.06-.11,3.39a10.74,10.74,0,0,1-.87,4.52,3.63,3.63,0,0,1-2.16,1.73,13,13,0,0,1-2.93.36,5.9,5.9,0,0,0-2.85.76,7.75,7.75,0,0,0-2.12,2.4c-.6.95-1.13,2-1.72,3.07a12.11,12.11,0,0,1-2,3.2,8.16,8.16,0,0,1-3.5,2,6.55,6.55,0,0,1-2.09.25,2.93,2.93,0,0,1-2.06-.89l.61-.22a10.76,10.76,0,0,1-.59,3.09,10.42,10.42,0,0,1-1.62,2.81,12,12,0,0,1-5.49,3.64,14.35,14.35,0,0,1-2.71.62,5.9,5.9,0,0,0-2.48.47,3.53,3.53,0,0,0-1.55,1.8,18.3,18.3,0,0,1-1.38,2.25c-2,2.81-4.77,5.13-8,5.78a12.51,12.51,0,0,1-8.65-1.91,12.88,12.88,0,0,1-5-5.78l.32.13a6.83,6.83,0,0,1-5.79-.27,6.46,6.46,0,0,1-2.93-3.26,6.57,6.57,0,0,1-.5-2.71,6.17,6.17,0,0,1,.08-.72,1,1,0,0,1,.07-.23,7.49,7.49,0,0,0,.6,3.55,6.16,6.16,0,0,0,2.85,3,6.42,6.42,0,0,0,5.43.17l.22-.1.1.23a12.53,12.53,0,0,0,4.82,5.48,12,12,0,0,0,8.21,1.76c3-.61,5.63-2.83,7.55-5.54a17.68,17.68,0,0,0,1.32-2.17,4.25,4.25,0,0,1,1.84-2.1,3.83,3.83,0,0,1,1.39-.44l1.34-.12a14.25,14.25,0,0,0,2.57-.58,11.32,11.32,0,0,0,5.17-3.42,9.75,9.75,0,0,0,1.51-2.6,10.21,10.21,0,0,0,.56-2.87l.05-.82.55.6c.8.87,2.27.77,3.45.45a7.55,7.55,0,0,0,3.22-1.78,11.94,11.94,0,0,0,1.94-3c.59-1.06,1.13-2.11,1.77-3.09a8.19,8.19,0,0,1,2.31-2.55,6.28,6.28,0,0,1,3.13-.81,12.36,12.36,0,0,0,2.82-.31A3.07,3.07,0,0,0,334.2,208a10.57,10.57,0,0,0,.92-4.31c.07-1.33.11-2.47.21-3.4a11.34,11.34,0,0,1,.39-2.1A2.76,2.76,0,0,1,336,197.5Z"/><path class="cls-11" d="M336.05,280c-.7,4.66,1.32,9.22,5.75,10.84a6.84,6.84,0,0,0,8.58-4.54,12.37,12.37,0,0,0,.11-5.89C346.42,280.2,340.12,280.27,336.05,280Z"/><path class="cls-4" d="M349.58,288.22s0,.13-.18.33a4,4,0,0,1-.68.82,6.5,6.5,0,0,1-3.51,1.74A8.39,8.39,0,0,1,339.5,290a8.84,8.84,0,0,1-3.84-6,9.59,9.59,0,0,1-.1-1.92,4.16,4.16,0,0,1,.5-1.91,1.68,1.68,0,0,1,.87-.68,2.89,2.89,0,0,1,1-.13l1.66.05c2.16.11,4.09.32,5.7.49,3.23.35,5.23.44,5.23.56a22.41,22.41,0,0,1-5.27,0c-1.63-.09-3.55-.24-5.68-.31l-1.64,0c-.55,0-.95.09-1.17.47a3.41,3.41,0,0,0-.35,1.52,8.41,8.41,0,0,0,.09,1.73,8.26,8.26,0,0,0,3.44,5.48,8.07,8.07,0,0,0,5.22,1.22,6.67,6.67,0,0,0,3.38-1.41C349.21,288.58,349.51,288.17,349.58,288.22Z"/><path class="cls-12" d="M444.36,234.06s19.88-2.47,49.78-26.25,46.07-57.57,49.41-57.08,18.63-4.93,40.78,58.3,9.85,76.28,4.32,75.64-42.2-14.67-66-14.22-55.15,9.87-55.15,9.87Z"/><polygon class="cls-6" points="408.58 281.28 419.21 279.01 413.46 265.04 404.48 269.51 408.58 281.28"/><path class="cls-4" d="M409.83,264.65l3.93,11.81,2.44,5.94A16.57,16.57,0,0,0,437,291.72l43.12-12.12L461.61,225l-42.84,18.07A16.56,16.56,0,0,0,409.83,264.65Z"/><path class="cls-4" d="M425.29,282.79l14.44,25.61,6.6-2.13,45.08,33.65,11.19-24.36s-26.23-10-31.38-19,.28-11.3.28-11.3L458.8,272Z"/><path class="cls-4" d="M582,209.92c11.74,34.23,15.15,64.07,7.63,66.65s-23.13-23.08-34.86-57.31-15.15-64.07-7.63-66.65S570.24,175.69,582,209.92Z"/><path class="cls-13" d="M552.43,199.77s17.92-8.9,25,14.85-11.06,25.82-11.06,25.82A152.78,152.78,0,0,1,552.43,199.77Z"/><path class="cls-4" d="M537,170.82a26.65,26.65,0,0,0,.25,4.43c.28,2.84.65,7,1.27,12.06.48,2.52,1,5.27,1.58,8.22l.9,4.58c.15.79.31,1.59.47,2.4s.43,1.6.65,2.42c.93,3.26,1.89,6.68,2.9,10.23.25.89.51,1.78.76,2.68s.64,1.77,1,2.67c.67,1.78,1.34,3.59,2,5.43s1.37,3.64,2,5.42c.36.88.63,1.79,1,2.64l1.19,2.52,4.53,9.62c.38.76.7,1.53,1.1,2.26l1.22,2.12,2.34,4,4.21,7.25c2.87,4.23,5.29,7.58,7,9.9a24.63,24.63,0,0,0,2.73,3.51,27.12,27.12,0,0,0-2.26-3.83l-6.56-10.16-4-7.28L561,249.91l-1.18-2.12c-.38-.72-.7-1.49-1.06-2.25-1.42-3.06-2.9-6.27-4.43-9.59l-1.17-2.51c-.4-.84-.67-1.75-1-2.63l-2-5.39c-.69-1.81-1.36-3.61-2-5.38-.32-.89-.71-1.75-1-2.65s-.51-1.78-.77-2.66l-3-10.13c-.23-.81-.5-1.6-.68-2.4s-.34-1.59-.5-2.37l-1-4.54c-.63-2.93-1.22-5.65-1.75-8.15-.72-5-1.3-9-1.72-11.95A25.74,25.74,0,0,0,537,170.82Z"/><path class="cls-6" d="M480.13,279.6a9.7,9.7,0,0,1-1.94.62l-5.35,1.4c-4.52,1.17-10.75,2.81-17.61,4.71s-13.08,3.63-17.62,4.75c-2.27.57-4.11,1-5.39,1.25a8.82,8.82,0,0,1-2,.33,10.06,10.06,0,0,1,1.93-.63l5.32-1.51,17.55-5c6.87-1.9,13.14-3.46,17.7-4.48,2.28-.52,4.13-.91,5.41-1.15A10.34,10.34,0,0,1,480.13,279.6Z"/><path class="cls-6" d="M454.79,270.69a24,24,0,0,1-4.21,1.79c-2.65,1-6.34,2.26-10.47,3.49s-7.92,2.2-10.68,2.82a22.47,22.47,0,0,1-4.5.81,28.64,28.64,0,0,1,4.36-1.37c2.71-.76,6.46-1.81,10.58-3s7.83-2.41,10.52-3.26A28.11,28.11,0,0,1,454.79,270.69Z"/><path class="cls-6" d="M447.94,258.22c.07.21-5.89,2.21-13.3,4.45s-13.47,3.88-13.54,3.66,5.89-2.21,13.3-4.45S447.88,258,447.94,258.22Z"/><path class="cls-6" d="M441.25,246.21c.1.2-5,2.62-11.32,5.4s-11.57,4.86-11.66,4.66,5-2.63,11.33-5.41S441.16,246,441.25,246.21Z"/><path class="cls-14" d="M392.75,381.29l-26.19-44.17-67.69-2.79.07,6.15s-18.6,18.7-24.58,44.18c-4.54,19.29,14.54,92.9,19.91,118.41,6.6,31.37,15.76,71.08,15.76,71.08-1.36,7-10.39,12.72-9.77,22.11l150.46-1.65L443,564.12Z"/><path class="cls-2" d="M444.94,575.8c0,.23-29.94.41-66.87.41s-66.87-.18-66.87-.41,29.94-.41,66.87-.41S444.94,575.58,444.94,575.8Z"/><path class="cls-2" d="M434.54,538.06c0,.22-29.67.4-66.26.4s-66.26-.18-66.26-.4,29.66-.41,66.26-.41S434.54,537.83,434.54,538.06Z"/><path class="cls-2" d="M424.33,497c0,.22-29,.41-64.84.41s-64.85-.19-64.85-.41,29-.41,64.85-.41S424.33,496.79,424.33,497Z"/><path class="cls-2" d="M417.19,455.72c0,.23-29.91.41-66.79.41s-66.79-.18-66.79-.41,29.9-.41,66.79-.41S417.19,455.5,417.19,455.72Z"/><path class="cls-2" d="M401.39,404.49c0,.23-28.3.41-63.2.41s-63.2-.18-63.2-.41,28.29-.41,63.2-.41S401.39,404.26,401.39,404.49Z"/><path class="cls-2" d="M379.84,357.57c0,.22-20.9.41-46.68.41s-46.68-.19-46.68-.41,20.9-.41,46.68-.41S379.84,357.34,379.84,357.57Z"/><path class="cls-15" d="M293.54,408.52s9.58,16.9,24.7,29.45,61.11,35,61.11,35l3.83-7.94,34.31,8L411.13,452Z"/><path class="cls-10" d="M455,352.8l-12,65L340.4,369.07l-16.53,57.85c40.31,19.72,121.94,52.54,132.44,51.59,14.94-1.35,25.26-10.27,29.91-32.15C489.1,432.81,487.74,342,487.74,342Z"/><path class="cls-7" d="M347.11,360.33s-38.37-23.7-55.11,6.17c-12,29.12,1.28,52.39,30.82,66.84,14.24,7,33.63,15.56,53.23,23.73l28.54-63.35Z"/><path class="cls-4" d="M347.11,360.33s.36.18,1.05.56l3,1.71,11.58,6.63,42,24.21.25.15-.12.26-28.48,63.39-.16.35-.36-.15c-10-4.18-20.4-8.63-30.93-13.34q-7-3.15-13.8-6.32c-4.53-2.12-9-4.25-13.27-6.58q-3.18-1.81-6.2-3.79c-1.95-1.41-4-2.7-5.73-4.27a57.65,57.65,0,0,1-9.71-9.93l-2-2.79a30,30,0,0,1-1.7-2.89,45.8,45.8,0,0,1-2.79-6c-.37-1-.63-2.08-.95-3.11l-.45-1.54c-.13-.52-.19-1.05-.29-1.57l-.54-3.13c-.09-1-.13-2.08-.2-3.11a44.33,44.33,0,0,1,.12-6.11c.16-2,.58-3.93.86-5.86.49-1.87.95-3.73,1.47-5.53l1.89-5.19v0a31.27,31.27,0,0,1,9.08-10.27,27.69,27.69,0,0,1,11.4-4.49,45,45,0,0,1,19.52,1.9,70.49,70.49,0,0,1,11.58,4.69c1.27.65,2.23,1.19,2.86,1.56s.94.6.94.6l-1-.52c-.64-.34-1.61-.85-2.89-1.48a75.82,75.82,0,0,0-11.6-4.51,45,45,0,0,0-19.34-1.74,27.21,27.21,0,0,0-11.16,4.46,30.84,30.84,0,0,0-8.85,10.11v0l-1.85,5.15c-.5,1.78-.95,3.62-1.43,5.47-.26,1.9-.68,3.81-.83,5.78a44.52,44.52,0,0,0-.1,6c.07,1,.11,2,.2,3.07s.36,2,.54,3.07c.1.51.16,1,.29,1.54l.45,1.52c.32,1,.57,2,.94,3a44.1,44.1,0,0,0,2.75,5.88,30.39,30.39,0,0,0,1.68,2.85l1.93,2.73a57.65,57.65,0,0,0,9.6,9.79c1.75,1.55,3.75,2.83,5.67,4.22s4.05,2.54,6.15,3.75c4.25,2.3,8.7,4.42,13.23,6.54s9.12,4.22,13.78,6.31c10.53,4.71,20.88,9.16,30.91,13.35l-.52.21,28.62-63.32.13.41L362.6,369.54l-11.49-6.77-3-1.8C347.44,360.56,347.11,360.33,347.11,360.33Z"/><path class="cls-10" d="M453.42,363.94l2.31-24.23s-9.26-18.65-9.08-20.52.72-12.14.72-12.14l23.15-20.84s7.5,0,7.69,7.42c0,0,7.22-1.52,7.31,7.12,0,0,7.81.29,8,6.61h0s4.7-.63,4.54,6c-.12,4.75-2.19,22.94-2.19,22.94l-9.68,16.84-.8,16.84Z"/><path class="cls-11" d="M455.81,441.61c-.26.09-2-5.79-5.47-12.4S442.77,418,443,417.84a15.73,15.73,0,0,1,2.74,2.92,52.35,52.35,0,0,1,5.33,8.07,56.78,56.78,0,0,1,3.77,8.9A15.9,15.9,0,0,1,455.81,441.61Z"/><path class="cls-2" d="M323.87,352.29a14.48,14.48,0,0,1-1,2.2c-.7,1.39-1.76,3.39-3.08,5.84-2.65,4.91-6.43,11.63-10.66,19l-10.86,18.88-3.31,5.71a13.24,13.24,0,0,1-1.3,2.05,14.48,14.48,0,0,1,1-2.2c.7-1.39,1.75-3.39,3.08-5.84,2.65-4.91,6.42-11.63,10.66-19l10.86-18.88c1.34-2.31,2.45-4.24,3.31-5.71A13.24,13.24,0,0,1,323.87,352.29Z"/><path class="cls-2" d="M355.15,366a3,3,0,0,1-.25.71c-.24.53-.52,1.18-.87,2-.76,1.7-1.9,4.13-3.35,7.13-2.88,6-7,14.2-11.85,23.13s-9.44,16.89-12.88,22.59c-1.71,2.85-3.13,5.14-4.13,6.71L320.65,430c-.28.41-.43.61-.46.6a2.83,2.83,0,0,1,.32-.68c.28-.52.62-1.13,1-1.88,1-1.72,2.3-4,3.91-6.83,3.3-5.77,7.82-13.76,12.65-22.69s9-17.08,12.06-23c1.46-2.87,2.67-5.24,3.58-7,.4-.75.72-1.38,1-1.9S355.12,366,355.15,366Z"/><path class="cls-2" d="M390.14,385.57a16,16,0,0,1-.94,2.6c-.65,1.65-1.65,4-2.95,6.92-2.58,5.8-6.41,13.71-11.13,22.18s-9.44,15.89-13,21.14c-1.79,2.63-3.27,4.72-4.34,6.15a17,17,0,0,1-1.71,2.16,17,17,0,0,1,1.45-2.35c1.05-1.59,2.44-3.71,4.12-6.28,3.45-5.32,8.07-12.76,12.79-21.21s8.61-16.3,11.32-22l3.18-6.81A18,18,0,0,1,390.14,385.57Z"/><polygon class="cls-4" points="298.94 625.29 302.21 596.24 445.74 594.67 449.4 625.29 298.94 625.29"/><path class="cls-6" d="M476.69,622.72c0,.23-44.21.41-98.75.41s-98.75-.18-98.75-.41,44.2-.4,98.75-.4S476.69,622.5,476.69,622.72Z"/><rect class="cls-6" x="340.12" y="115.82" width="59.79" height="8.71" rx="3.19"/><path class="cls-6" d="M414.4,120.18a4.36,4.36,0,1,1-4.36-4.36A4.36,4.36,0,0,1,414.4,120.18Z"/><path class="cls-4" d="M233.54,183.43h3.54a0,0,0,0,1,0,0v72.83a0,0,0,0,1,0,0h-3.54a9.73,9.73,0,0,1-9.73-9.73V193.16A9.73,9.73,0,0,1,233.54,183.43Z"/><path class="cls-4" d="M232.66,289.26h3.54a0,0,0,0,1,0,0v72.83a0,0,0,0,1,0,0h-3.54a9.73,9.73,0,0,1-9.73-9.73V299A9.73,9.73,0,0,1,232.66,289.26Z"/><path class="cls-16" d="M232.91,161.06V397.19"/><path class="cls-6" d="M232.91,397.19c-.22,0-.41-52.87-.41-118.06s.19-118.07.41-118.07.41,52.85.41,118.07S233.14,397.19,232.91,397.19Z"/><rect class="cls-2" x="20.95" y="347.91" width="166.9" height="135.51" rx="15.97"/><path class="cls-5" d="M111.1,479.28c1.72,4.15,34.82,35.26,34.82,35.26V479.28Z"/><path class="cls-4" d="M134.36,378A20.89,20.89,0,0,0,124,365.63c-5.41-2.76-11.86-3-17.78-1.63s-11.39,4.21-16.55,7.4a27.3,27.3,0,0,0-7.83,6.48c-3.73,5-7.33,13.07-7.52,19.29-.16,5,2.12,17.53,4.37,22,.8,1.6,2.68,3,4.94,4.21a42.4,42.4,0,0,0,9.43,11.76q1.59-5.1,3.2-10.21Z"/><path class="cls-4" d="M131.29,371.9l-9.94-1.49c5.78,12.72,8.08,42.12,11.56,55.65,3.5-5.4,11.5-21.75,10.87-28.14S143,370.47,131.29,371.9Z"/><path class="cls-17" d="M85,394.66a16.9,16.9,0,0,1,12.26-15.91l22.61-6.46c9.81-1.35,16.73,10.57,17.66,20.43,1,11,1.8,22.53.75,30.75-2.11,16.55-14.67,19-14.67,19s.22,7.83.35,12.64l-3.68,21.56L90.49,451.26,85,394.87C85,394.58,85,395,85,394.66Z"/><path class="cls-4" d="M132.57,406.42a2.11,2.11,0,0,1-2,2.2,2,2,0,0,1-2.23-1.84,2.1,2.1,0,0,1,2-2.19A2,2,0,0,1,132.57,406.42Z"/><path class="cls-4" d="M135.26,399.24c-.26.29-1.89-.85-4.16-.77s-3.91,1.26-4.16,1c-.13-.12.13-.62.83-1.17a5.83,5.83,0,0,1,3.32-1.14,5.64,5.64,0,0,1,3.33,1C135.13,398.63,135.38,399.12,135.26,399.24Z"/><path class="cls-4" d="M112.1,406.43a2.11,2.11,0,0,1-2,2.19,2,2,0,0,1-2.23-1.84,2.1,2.1,0,0,1,2-2.19A2,2,0,0,1,112.1,406.43Z"/><path class="cls-4" d="M113.67,399.86c-.25.28-1.89-.85-4.16-.77s-3.9,1.26-4.16,1c-.12-.12.13-.63.84-1.18a5.8,5.8,0,0,1,3.32-1.13,5.55,5.55,0,0,1,3.32,1C113.55,399.24,113.8,399.73,113.67,399.86Z"/><path class="cls-4" d="M121.29,417.51a14.85,14.85,0,0,1,3.67-.78c.58-.08,1.12-.21,1.21-.61a3,3,0,0,0-.44-1.71q-.89-2.09-1.85-4.36c-2.58-6.22-4.46-11.34-4.21-11.44s2.54,4.85,5.12,11.07c.62,1.53,1.21,3,1.78,4.39a3.37,3.37,0,0,1,.37,2.27,1.45,1.45,0,0,1-.93.88,3.88,3.88,0,0,1-1,.17A15,15,0,0,1,121.29,417.51Z"/><path class="cls-18" d="M101.62,437.27s5.69,11.16,22.12,9.11l-.11-3.87A41.52,41.52,0,0,1,101.62,437.27Z"/><path class="cls-4" d="M112.73,391.67c-.21.62-2.49.4-5.14.8s-4.79,1.2-5.16.66c-.17-.26.19-.86,1-1.48a8.71,8.71,0,0,1,3.79-1.46,8.55,8.55,0,0,1,4.06.35C112.31,390.9,112.81,391.37,112.73,391.67Z"/><path class="cls-4" d="M134.32,392.31c-.39.53-2,.05-3.85.08s-3.47.45-3.85-.08c-.17-.25.07-.78.75-1.29a5.58,5.58,0,0,1,6.2,0C134.25,391.53,134.49,392.06,134.32,392.31Z"/><path class="cls-4" d="M132.64,377.81a7.24,7.24,0,0,0-6.51-3.92,14.06,14.06,0,0,0-7.53,2.43c-9.65,5.95-14.3,19.79-23.82,25.93-2.35,1.51-5.49.28-7.46,2.25s-3.2,5.06-2,7.57a22.8,22.8,0,0,1-3.52-5.59,7.77,7.77,0,0,1,.09-6.42c.8-1.48,2.24-2.63,2.6-4.27.32-1.44-.29-2.92-.27-4.4a9.62,9.62,0,0,1,1.39-4.24c3.61-6.83,8.66-13,15.27-17A27.92,27.92,0,0,1,115.22,366a21.37,21.37,0,0,1,13.91,5.07c2.22,2,4.56,4,3.51,6.76"/><path class="cls-17" d="M87.62,406.53c-.19-.47-8.87-3.32-8.72,5.81.14,8.88,9,6.87,9,6.62S87.62,406.53,87.62,406.53Z"/><path class="cls-18" d="M85.15,415.65s-.15.11-.41.24a1.54,1.54,0,0,1-1.16,0c-.94-.32-1.76-1.8-1.83-3.39a5,5,0,0,1,.39-2.23,1.78,1.78,0,0,1,1.14-1.2.79.79,0,0,1,.92.4c.12.25.07.43.12.44s.18-.15.1-.52a1,1,0,0,0-.36-.55,1.15,1.15,0,0,0-.85-.21,2.18,2.18,0,0,0-1.59,1.41,5.27,5.27,0,0,0-.49,2.48c.09,1.79,1,3.45,2.33,3.79a1.69,1.69,0,0,0,1.41-.26C85.14,415.87,85.18,415.67,85.15,415.65Z"/><path class="cls-2" d="M84,402.07a2.47,2.47,0,0,0,.52-.31c.34-.23.85-.53,1.46-1a30.24,30.24,0,0,0,4.67-4.49,88.13,88.13,0,0,0,5.64-7.78,69.35,69.35,0,0,1,7.06-9.32,27.35,27.35,0,0,1,4.62-3.87,22.92,22.92,0,0,1,5-2.46,25.2,25.2,0,0,1,9.37-1.42,24.09,24.09,0,0,1,6.33,1.05c.73.2,1.28.43,1.66.56a3.46,3.46,0,0,0,.58.19,3.45,3.45,0,0,0-.55-.26,13.1,13.1,0,0,0-1.65-.64,22.74,22.74,0,0,0-6.36-1.19,25.1,25.1,0,0,0-9.5,1.35,22.85,22.85,0,0,0-5.13,2.49A27.26,27.26,0,0,0,103,378.9a67,67,0,0,0-7.08,9.39,90.67,90.67,0,0,1-5.55,7.8,33.88,33.88,0,0,1-4.54,4.56c-.6.47-1.09.79-1.41,1A3.87,3.87,0,0,0,84,402.07Z"/><path class="cls-4" d="M86.26,404.52c-.07,2.43-.11,5,1.07,7.11s4,3.5,6.12,2.24c1.69-1,2.14-3.25,2.38-5.21.68-5.68.9-11.4,1.63-17.07Z"/><path class="cls-6" d="M130.34,373.65c0,.05-.79-.12-2.21-.13a15.14,15.14,0,0,0-5.84,1.24,19.69,19.69,0,0,0-3.63,2,39.88,39.88,0,0,0-3.71,3,45.69,45.69,0,0,0-7.2,8.22c-1.08,1.61-2,3.27-3.07,4.8a22.78,22.78,0,0,1-3.44,4.1,39.4,39.4,0,0,1-7.35,5.23c-2.24,1.27-4.11,2.16-5.4,2.78l-1.5.69a3.31,3.31,0,0,1-.54.21,2.05,2.05,0,0,1,.49-.3l1.46-.77c1.26-.68,3.11-1.62,5.31-2.91a41.42,41.42,0,0,0,7.22-5.26,22.78,22.78,0,0,0,3.35-4c1-1.52,2-3.18,3.06-4.81a44.55,44.55,0,0,1,7.31-8.29,40.6,40.6,0,0,1,3.78-3,19.07,19.07,0,0,1,3.73-2,14.58,14.58,0,0,1,6-1.11,9.2,9.2,0,0,1,1.65.18A3.88,3.88,0,0,1,130.34,373.65Z"/><path class="cls-2" d="M85.86,399.05a4.62,4.62,0,0,1-.77.55L82.88,401l-.74.46a2.44,2.44,0,0,1-1,.35,1,1,0,0,1-.6-.13.75.75,0,0,1-.35-.57,2,2,0,0,1,.39-1.14l2.49-4.25.36.32a9.36,9.36,0,0,1-6,2,2.61,2.61,0,0,1-.81-.12,1.07,1.07,0,0,1-.7-.58,1,1,0,0,1,.12-.9,4.81,4.81,0,0,1,.49-.57,18.7,18.7,0,0,0,2.91-3.89,32.58,32.58,0,0,0,1.81-4.14,4.81,4.81,0,0,1-.25,1.2,16.29,16.29,0,0,1-1.25,3.1,17.52,17.52,0,0,1-2.89,4.05c-.32.32-.64.69-.5,1s.62.4,1.09.39a8.91,8.91,0,0,0,3-.45,9.08,9.08,0,0,0,2.67-1.41l1-.81L83.52,396,81,400.17a1.71,1.71,0,0,0-.35.88.42.42,0,0,0,.52.36,4.58,4.58,0,0,0,1.58-.7L85,399.45A3.77,3.77,0,0,1,85.86,399.05Z"/><path class="cls-18" d="M112.76,422a3,3,0,0,1,3-2.34,3.11,3.11,0,0,1,2.44,1.62,3.88,3.88,0,0,1,.22,3l0,.21a3.38,3.38,0,0,1-3.77.92A3.16,3.16,0,0,1,112.76,422Z"/><path class="cls-4" d="M120,424.41c0-.34-2.3-.17-4.08-2s-1.72-4.29-2-4.29c-.14,0-.4.58-.35,1.62a5.77,5.77,0,0,0,1.58,3.59,5,5,0,0,0,3.41,1.54C119.5,424.87,120.05,424.57,120,424.41Z"/><path class="cls-5" d="M156.7,467.06l-.27-.33c-11.47-12.14-32.58-16.2-32.58-16.2s-1.29,8-13.13,8.84S90.19,448.2,90.19,448.2L74.4,450.41s-8,.93-12.9,3.84c-11.15,6.56-17.06,29.18-17.06,29.18l121.78.49Z"/><path class="cls-4" d="M167.83,347.91l.85,0a14.59,14.59,0,0,1,2.51.23,19.65,19.65,0,0,1,8.94,3.86,20.13,20.13,0,0,1,7.7,13.38,38.09,38.09,0,0,1,.19,4.82c0,1.66,0,3.37,0,5.14,0,3.55,0,7.3,0,11.27,0,15.87,0,35.07.08,57q0,8.2,0,16.92c0,1.45,0,2.9-.07,4.4a21.08,21.08,0,0,1-.81,4.42,20.36,20.36,0,0,1-4.55,7.89,19.81,19.81,0,0,1-7.74,5.2l-1.13.4-1.15.3a17.2,17.2,0,0,1-2.36.44,40.87,40.87,0,0,1-4.81.18h-19.6l.33-.33c0,9.83,0,20.33,0,31.11v.8l-.58-.55q-7.74-7.29-15.72-15c-5.28-5.18-10.69-10.44-15.87-16.08l.27.12H43.19c-1.3,0-2.6,0-3.93-.09A20.38,20.38,0,0,1,21.7,470a22.15,22.15,0,0,1-1.11-7.59v-7.53c0-20,0-39.29,0-57.67q0-13.77,0-26.85a32.43,32.43,0,0,1,.41-6.52,21.26,21.26,0,0,1,2.3-6,20.14,20.14,0,0,1,4-4.94,19.65,19.65,0,0,1,5.22-3.43,19.93,19.93,0,0,1,5.91-1.67,57.75,57.75,0,0,1,6-.16h11.6l21.81,0,65.83.12,17.89.07,4.66,0,1.58,0s-.54,0-1.58,0l-4.66,0-17.89.07-65.83.12-21.81,0H44.46a55.77,55.77,0,0,0-5.93.17A19.42,19.42,0,0,0,32.8,350a18.71,18.71,0,0,0-5,3.34,18.94,18.94,0,0,0-3.87,4.79A20.69,20.69,0,0,0,21.66,364a32.15,32.15,0,0,0-.39,6.39q0,13.06,0,26.85c0,18.38,0,37.67,0,57.67v7.53a21.51,21.51,0,0,0,1.07,7.35A19.64,19.64,0,0,0,39.32,483c1.26.09,2.56.09,3.87.08h71.34l.11.11c5.14,5.62,10.55,10.89,15.83,16.07s10.54,10.18,15.69,15l-.58.25c0-10.78,0-21.28,0-31.11v-.34h.33l19.6,0a38.87,38.87,0,0,0,4.73-.16,17.77,17.77,0,0,0,2.29-.43l1.12-.29,1.09-.39a19.15,19.15,0,0,0,7.51-5,19.83,19.83,0,0,0,4.43-7.65,20.38,20.38,0,0,0,.79-4.29c.11-1.43.07-2.91.08-4.35q0-8.72,0-16.92c0-21.9.06-41.1.08-57,0-4,0-7.72,0-11.27,0-1.77,0-3.48,0-5.14a35.56,35.56,0,0,0-.16-4.78,19.94,19.94,0,0,0-16.34-17.17,17.33,17.33,0,0,0-2.5-.29Z"/><rect class="cls-2" x="532.82" y="394.18" width="191.13" height="155.19" rx="16.05" transform="translate(1256.77 943.54) rotate(180)"/><path class="cls-6" d="M620.71,544.61c-2,4.76-39.88,40.39-39.88,40.39V544.61Z"/><path class="cls-17" d="M606,512.12c0-4.9,0-9,0-9.49,0,0-16.58-1.57-17.77-18-.57-7.93-.43-24.35-.12-39.21a30.64,30.64,0,0,1,28.8-29.94l1.59-.09c17.14,0,26.74,14.51,26.29,31.65l-.6,64.32-27.73,22.26-2-.18Z"/><path class="cls-18" d="M606,502.63A39.75,39.75,0,0,0,627,495s-4.49,12.31-21,11.81Z"/><path class="cls-4" d="M616.05,452.52c.32.33,2.23-1.17,5-1.2s4.78,1.33,5.07,1c.15-.15-.18-.76-1.07-1.4a6.84,6.84,0,0,0-4.07-1.21,6.56,6.56,0,0,0-4,1.38C616.17,451.75,615.89,452.37,616.05,452.52Z"/><path class="cls-4" d="M618.08,460a2.21,2.21,0,0,0,2.27,2.11,2.12,2.12,0,0,0,2.17-2.13,2.22,2.22,0,0,0-2.27-2.11A2.12,2.12,0,0,0,618.08,460Z"/><path class="cls-4" d="M608.93,471.53c0-.15-1.59-.32-4.15-.5-.65,0-1.26-.11-1.4-.55a3.26,3.26,0,0,1,.32-1.93l1.61-5c2.23-7.15,3.8-13,3.51-13.09s-2.33,5.63-4.56,12.77q-.79,2.64-1.53,5.05a3.78,3.78,0,0,0-.18,2.55,1.64,1.64,0,0,0,1.12.88,4.38,4.38,0,0,0,1.1.08C607.34,471.76,608.92,471.67,608.93,471.53Z"/><path class="cls-4" d="M617.42,443.71c.25.61,2.46.18,5.09.35s4.79.78,5.1.19c.14-.27-.27-.84-1.15-1.39a8.59,8.59,0,0,0-7.77-.42C617.76,442.9,617.31,443.42,617.42,443.71Z"/><path class="cls-4" d="M591.66,445.27c.28.5,2.43,0,5-.07s4.75.31,5-.2c.12-.25-.3-.7-1.2-1.11a9.19,9.19,0,0,0-3.83-.68,9.35,9.35,0,0,0-3.83.89C592,444.56,591.54,445,591.66,445.27Z"/><path class="cls-17" d="M644.19,459.29c.28-.13,11.08-4,11.4,7.24s-11,9.24-11.07,8.92S644.19,459.29,644.19,459.29Z"/><path class="cls-18" d="M647.84,471.09s.2.13.53.27a2,2,0,0,0,1.47,0c1.17-.47,2.12-2.38,2.12-4.41a6.43,6.43,0,0,0-.63-2.79,2.26,2.26,0,0,0-1.52-1.46,1,1,0,0,0-1.14.57c-.14.32-.06.54-.12.56s-.25-.18-.17-.65a1.28,1.28,0,0,1,.42-.71,1.5,1.5,0,0,1,1.08-.32,2.73,2.73,0,0,1,2.09,1.68,6.58,6.58,0,0,1,.77,3.12c0,2.27-1.11,4.42-2.72,4.94a2.08,2.08,0,0,1-1.8-.25C647.86,471.36,647.8,471.11,647.84,471.09Z"/><path class="cls-4" d="M612.41,481.09c-.12-.29,2.09-.92,3.67-3a12.22,12.22,0,0,0,1.59-2.91c.34-.81.6-1.32.72-1.28s.07.59-.12,1.47a8.28,8.28,0,0,1-1.49,3.27,6.58,6.58,0,0,1-2.9,2.16C613,481.17,612.44,481.18,612.41,481.09Z"/><path class="cls-4" d="M659.37,441.29c-2.29-4-2.77-8.73-4-13.17s-3.63-9.06-8-10.66l-.1,0c-3.87-1.61-8.67-1.7-11.91,1-.71-5.85-5.77-10.54-11.46-12.11s-14.84-.8-20.34,1.34c-4.25,1.64-8.38,5.08-13.41,10.13a55.51,55.51,0,0,0-5.83,6.88L579.23,440l4.14,8.08a18.06,18.06,0,0,0,.82,1.65v0l3.61,17c.3-4.61.17-20.67.48-25.28a25.69,25.69,0,0,0,18.44-8.23c2.56-2.76,4.59-6.23,8-7.86,4.37-2.09,9.53-.46,14.09,1.19l-.19-.18a20.48,20.48,0,0,1,6.29,4.67A64,64,0,0,0,637.31,458c.41,1.31,1.55,4,2.83,4.53,2.51,1,3.22-1.55,4.76-2.9,1.13-1,2.79-1.09,4.61-1.07A100.19,100.19,0,0,0,652.74,447a10.34,10.34,0,0,0,4.72.38l-1.41-3.5a5.29,5.29,0,0,0,2,.94A1.81,1.81,0,0,0,660,444C660.42,443.13,659.85,442.12,659.37,441.29Z"/><path class="cls-6" d="M630.24,420.28a13.84,13.84,0,0,1,1.63,1.52,11.83,11.83,0,0,1,2.44,5.48,20.8,20.8,0,0,1,.37,4.17c0,1.51-.16,3.13-.3,4.83a44.6,44.6,0,0,0-.19,5.37,18.46,18.46,0,0,0,.33,2.84,5.92,5.92,0,0,0,1.13,2.77,2.48,2.48,0,0,0,2.3.81,3.74,3.74,0,0,0,2.1-1.15,8.53,8.53,0,0,0,1.63-4.15l-.34,0a13.46,13.46,0,0,0,1.95,3.46,4.86,4.86,0,0,0,3.16,1.78,3.16,3.16,0,0,0,1.7-.28,2.71,2.71,0,0,0,1.16-1.11,2.85,2.85,0,0,0,.37-1.45,2.1,2.1,0,0,0-.51-1.28l-.18.15a10.69,10.69,0,0,0,3.49,2.69,8.39,8.39,0,0,0,1.08.43l.39.11s-.12-.07-.36-.17a10.29,10.29,0,0,1-1.06-.49,10.9,10.9,0,0,1-3.36-2.72l-.18.15a2.09,2.09,0,0,1,.08,2.44,2.45,2.45,0,0,1-1.05,1,2.93,2.93,0,0,1-1.54.23,4.61,4.61,0,0,1-2.93-1.69,13.32,13.32,0,0,1-1.88-3.39l-.23-.53-.12.57a8.24,8.24,0,0,1-1.55,4,3.29,3.29,0,0,1-1.88,1,2.11,2.11,0,0,1-2-.68,5.73,5.73,0,0,1-1-2.59,17.71,17.71,0,0,1-.33-2.78,42.22,42.22,0,0,1,.17-5.33c.12-1.71.26-3.33.25-4.86a20.41,20.41,0,0,0-.41-4.22,11.58,11.58,0,0,0-2.6-5.52A6.82,6.82,0,0,0,630.24,420.28Z"/><path class="cls-6" d="M579.32,435.58l.13.11.41.3a5,5,0,0,0,.68.46,9.62,9.62,0,0,0,1,.54,14.62,14.62,0,0,0,7,1.35,18.62,18.62,0,0,0,10-3.53,32.18,32.18,0,0,0,8.62-9.68c1.22-2,2.22-4,3.31-5.86a21.93,21.93,0,0,1,3.73-4.95,11.15,11.15,0,0,1,4.76-2.8,8,8,0,0,1,2.5-.26,9.05,9.05,0,0,1,2.27.47,9.46,9.46,0,0,1,5.21,4.53,11.16,11.16,0,0,1,.82,2.47s0-.06,0-.18-.05-.3-.07-.5a8.71,8.71,0,0,0-.6-1.86,9.25,9.25,0,0,0-1.81-2.51,9.45,9.45,0,0,0-3.45-2.2,8.69,8.69,0,0,0-2.34-.51,8.28,8.28,0,0,0-2.6.24,11.43,11.43,0,0,0-4.92,2.86,21.93,21.93,0,0,0-3.81,5C609,421,608,423,606.78,424.93a32.16,32.16,0,0,1-8.51,9.59,18.5,18.5,0,0,1-9.75,3.55,14.81,14.81,0,0,1-6.92-1.22A23.37,23.37,0,0,1,579.32,435.58Z"/><path class="cls-4" d="M591,453.23c.32.33,2.23-1.17,5-1.2s4.78,1.33,5.07,1c.14-.15-.19-.76-1.08-1.4a6.8,6.8,0,0,0-4.06-1.21,6.56,6.56,0,0,0-4,1.38C591.12,452.46,590.85,453.08,591,453.23Z"/><path class="cls-4" d="M595.2,460.35a2.22,2.22,0,0,0,2.28,2.11,2.12,2.12,0,0,0,2.16-2.13,2.22,2.22,0,0,0-2.27-2.11A2.12,2.12,0,0,0,595.2,460.35Z"/><path class="cls-4" d="M585.78,422.83c-1.4,1.84-3.54,3.52-5.84,3.27a16.79,16.79,0,0,1-2.45-.72c-.8.49-.61,3.24-.06,4a15,15,0,0,0,1.72,1.78c-2.69,1.45-5.15.73-8-.32a14.11,14.11,0,0,0,8.37,11.3c1.44.62,3.2.95,4.52.09a5.64,5.64,0,0,0,2-3.52,61,61,0,0,0,2-15.08Z"/><path class="cls-6" d="M568.5,530.63l.3-.38c13.13-13.9,37.31-18.56,37.31-18.56s1.48,9.11,15,10.12S644.66,509,644.66,509l18.08,2.53s9.11,1.08,14.77,4.41c12.77,7.51,19.54,33.41,19.54,33.41l-139.46.56Z"/><path class="cls-4" d="M555.74,394.18l-1,.07-1.2.08c-.48,0-1,.15-1.66.25a22.7,22.7,0,0,0-10.11,4.48,23.26,23.26,0,0,0-5.41,6,22.88,22.88,0,0,0-3.22,9.14,42.71,42.71,0,0,0-.18,5.48c0,1.9,0,3.87,0,5.9q0,6.08,0,12.9c0,18.17.05,40.16.08,65.23q0,9.4,0,19.38c0,1.66,0,3.34.09,5a23.9,23.9,0,0,0,.91,4.93,22.77,22.77,0,0,0,5.08,8.77,22,22,0,0,0,8.62,5.77l1.25.45,1.29.33a20.86,20.86,0,0,0,2.62.49,44.14,44.14,0,0,0,5.42.19l22.44,0h.34v.34c0,11.25,0,23.29,0,35.63l-.58-.26c5.89-5.56,11.9-11.31,18-17.22s12.24-12,18.13-18.4l.11-.11h81.67c1.5,0,3,0,4.44-.09a22.55,22.55,0,0,0,19.44-15.16,24.65,24.65,0,0,0,1.23-8.44q0-4.34,0-8.63c0-22.9,0-45,0-66q0-15.78,0-30.75a36.26,36.26,0,0,0-.45-7.33,23.57,23.57,0,0,0-2.55-6.71,22.76,22.76,0,0,0-10.23-9.33,22.26,22.26,0,0,0-6.58-1.87,64,64,0,0,0-6.79-.19H683.74l-25,0-75.38-.11-20.49-.07-5.33,0-1.82,0s.62,0,1.82,0l5.33,0,20.49-.07,75.38-.11,25,0,13.29,0a63.35,63.35,0,0,1,6.86.19,23.16,23.16,0,0,1,6.76,1.91,23.31,23.31,0,0,1,10.52,9.57,24.26,24.26,0,0,1,2.63,6.89,37.28,37.28,0,0,1,.47,7.46q0,15,0,30.75c0,21,0,43.13,0,66v8.63A25.19,25.19,0,0,1,723,534,23.27,23.27,0,0,1,703,549.63c-1.52.11-3,.11-4.5.1H617l.27-.11c-5.93,6.46-12.12,12.48-18.18,18.42s-12.08,11.66-18,17.22l-.58.55V585c0-12.34,0-24.38,0-35.63l.33.33H558.39a46.12,46.12,0,0,1-5.5-.2,22,22,0,0,1-2.69-.5l-1.33-.34-1.28-.47a22.65,22.65,0,0,1-8.85-5.95,23.33,23.33,0,0,1-5.21-9,25.05,25.05,0,0,1-.92-5.05c-.12-1.72-.07-3.38-.08-5q0-10,0-19.38c0-25.07.06-47.06.08-65.23q0-6.82,0-12.9c0-2,0-4,0-5.9a43.47,43.47,0,0,1,.22-5.52,23,23,0,0,1,8.8-15.3,22.57,22.57,0,0,1,10.22-4.43c.64-.08,1.19-.19,1.67-.22l1.21-.05C555.42,394.17,555.74,394.18,555.74,394.18Z"/></g></g></svg>