<svg xmlns="http://www.w3.org/2000/svg" viewBox="0 0 186.16 186.28"><defs><style>.cls-1{fill:#353535;}.cls-2{fill:#91e1b2;}.cls-3{fill:#8cc883;}.cls-4{fill:#89a586;}.cls-5{fill:#ea8d81;}.cls-6{fill:#a3665e;}.cls-7{fill:#e4f5e3;}.cls-8{fill:#d7f2d4;}.cls-9{fill:#f3cec9;}</style></defs><g id="Layer_2" data-name="Layer 2"><g id="Layer_1-2" data-name="Layer 1"><g id="XRSxBM.tif"><path class="cls-1" d="M74.6,59.08c0,18.3,0,36.6,0,54.89,0,2,.56,2.38,2.39,2.32,5.45-.16,10.9-.13,16.35-.17a3.66,3.66,0,0,1,3.57,1.95,3.57,3.57,0,0,1-.54,4q-21.55,30.06-43.09,60.14c-.46.64-.91,1.29-1.36,1.93-1.93,2.79-4.51,2.85-6.43.15-5.5-7.7-11-15.42-16.48-23.11Q15,141.68,1,122.21c-1-1.33-1.41-2.69-.57-4.18s2.26-1.9,4-1.87c5.6.12,11.19,0,16.79.12,1.5,0,1.35-.87,1.35-1.82q0-12.58,0-25.19,0-11.08-.08-22.17a4.89,4.89,0,0,1,1-3Q45.82,33,68.07,1.86A3.54,3.54,0,0,1,72.33.26c1.78.58,2.31,2.06,2.3,3.93q-.06,27.44,0,54.89Z"/><path class="cls-1" d="M111.57,127.2c0-18.3,0-36.6.05-54.9,0-2-.54-2.38-2.39-2.32-5.44.16-10.9.12-16.35.16a3.66,3.66,0,0,1-3.57-1.93,3.57,3.57,0,0,1,.53-4Q111.22,34.42,132.57,4.6c.63-.87,1.23-1.76,1.85-2.64,1.83-2.61,4.43-2.62,6.3,0,5.41,7.58,10.8,15.19,16.22,22.76Q171,44.41,185.16,64.05c1,1.33,1.38,2.68.57,4.18a3.77,3.77,0,0,1-3.78,1.9c-5.6-.09-11.19,0-16.79-.14-1.48,0-1.59.64-1.58,1.81,0,8,0,15.93,0,23.9q0,11.73.08,23.46a4.78,4.78,0,0,1-1,3q-22.27,31.14-44.53,62.28a3.58,3.58,0,0,1-4.27,1.62c-1.78-.59-2.31-2.06-2.3-3.93q.06-27.45,0-54.89Z"/><path class="cls-2" d="M63,156.46,48.67,176.87l-38.41-53.7c5.12,0,9.82,0,14.51,0,3.61,0,4.74-1.21,4.73-4.89-.07-16.42,0-32.85-.05-49.27a3.6,3.6,0,0,1,.69-2.2L42.66,49.61c4.81-5.9,10.44-11,15.76-16.44a6.61,6.61,0,0,1,1.17-.94c.95-.56,1.48-.21,1.7.78a13,13,0,0,1,.16,3q0,39.25,0,78.5c0,.57,0,1.14,0,1.72,0,2.78.14,2.88,2.9,3,1.13,0,2.32-.19,3.28.69.73,2.56,1.86,3.37,4.41,3.35,2.85,0,5.69.05,8.54.08-.33,2.55-1.87,4.58-3,6.73-3.64,6.73-7.22,13.48-10.86,20.2C65.53,152.36,64.07,154.31,63,156.46Z"/><path class="cls-3" d="M67.64,119.86a46.68,46.68,0,0,0-4.73,0c-1.78.15-2.15-.56-2.15-2.21q.08-30.9,0-61.8V32.32c-1-.07-1.39.78-1.9,1.29C54,38.47,49.15,43.36,44.28,48.23c-.5.5-1.08.92-1.62,1.38,3-4.33,6.05-8.68,9.11-13q7.42-10.42,14.9-20.8c.2-.28.42-.55.63-.81.63.29.39.78.39,1.15q0,51.32,0,102.63C67.68,119.15,67.65,119.5,67.64,119.86Z"/><path class="cls-4" d="M63,156.46c.74-2.57,2.34-4.73,3.56-7.06,4.32-8.26,8.77-16.44,13.18-24.65.27-.5.6-1,.9-1.46,1.57,0,3.15-.05,4.72-.09,1,0,1.57.16.76,1.28q-11.4,15.87-22.77,31.75C63.23,156.34,63.07,156.39,63,156.46Z"/><path class="cls-5" d="M131.43,153.45c-3.9,6.17-8.36,11.93-12.62,18a2.33,2.33,0,0,1-.33-1.78q0-51.1,0-102.21c0-3.07-1.4-4.44-4.44-4.41-4.78,0-9.55,0-14.83,0l38.36-53.6c5.62,8.12,11.52,15.69,16.7,23.78,5.61,9,10.44,18.44,15.56,27.71,1,1.9.83,2.26-1.24,2.23a67,67,0,0,1-7.5-.12c-2-.09-3.58.44-4.3,2.5-.38,1.63-1.7,1.47-2.9,1.51-3.29.1-3.3.1-3.3,3.39q0,22.8,0,45.6a12.22,12.22,0,0,1-1.6,6.34C143.13,132.74,137.79,143.38,131.43,153.45Z"/><path class="cls-6" d="M131.43,153.45c1.49-4.06,4-7.59,6-11.36,3.95-7.32,8-14.56,12.06-21.82a5.24,5.24,0,0,0,.41-2.73c0-16.14.06-32.29-.05-48.43,0-2.27.67-2.82,2.79-2.71,1.38.08,3.05.75,4.15-.84,0,2.43,0,4.85,0,7.28,0,14.2,0,28.4,0,42.6a8.49,8.49,0,0,1-1.69,5.35c-7.69,10.61-15.29,21.29-22.92,31.94A5.29,5.29,0,0,1,131.43,153.45Z"/><path class="cls-6" d="M161.09,63.06c2.43,0,4.86-.12,7.29-.09,1.44,0,1.94-.06,1-1.68-4.71-8.33-9.29-16.73-13.89-25.13a6.87,6.87,0,0,1-1.25-2.92c2.72,2.85,4.68,6.27,7,9.43,4.6,6.28,9.09,12.64,13.62,19,.24.33.42.71.79,1.33C170.65,63,165.89,63.93,161.09,63.06Z"/><path class="cls-7" d="M39.25,157.74Q28.63,142.92,18,128.11c-.45-.62-1.1-1.35.31-1.36,5.56-.06,11.12,0,17.05,0-2,2.1-4.32,3.2-6.27,4.7-.9.68-.9,1.18-.47,2.11,3.72,7.91,7.38,15.84,11.06,23.77C39.85,157.76,39.64,157.84,39.25,157.74Z"/><path class="cls-8" d="M39.25,157.74l.43-.43a1.9,1.9,0,0,1,.7,2Z"/><path class="cls-9" d="M128.83,28.49c-1.76,3.8-3.5,7.61-5.26,11.41-2,4.22-3.89,8.45-5.94,12.64a1.77,1.77,0,0,0,.78,2.65,44.58,44.58,0,0,1,6,4.26H106l22.33-31.23Z"/></g></g></g></svg>