<svg xmlns="http://www.w3.org/2000/svg" viewBox="0 0 36.19 57.19"><defs><style>.cls-1{fill:#4359f3;}</style></defs><g id="Layer_2" data-name="Layer 2"><g id="Layer_1-2" data-name="Layer 1"><path class="cls-1" d="M21.6,57.19a1.14,1.14,0,0,1-.93-.48c-4.11-4.93-7.76-9.23-11.16-13.14-3.23-3.71-6.18-7-9-10A1.6,1.6,0,0,1,0,32.35c0-.93,0-1.86,0-2.79,0-.6,0-1.2,0-1.81,0-.91.31-1.22,1.23-1.23H4.83c.89,0,2.07,0,3.25-.12a15,15,0,0,0,7.75-2.58,8.15,8.15,0,0,0,2.92-4.06.79.79,0,0,0,0-.73.82.82,0,0,0-.7-.25H1.11a1.3,1.3,0,0,1-.56-.08.73.73,0,0,1-.5-.65C0,16.36,0,14.87.06,13.51a.75.75,0,0,1,.76-.72c.2,0,.4,0,.6,0H17.35l.27,0a.58.58,0,0,0,.55-.33.72.72,0,0,0-.14-.76L18,11.64a8.08,8.08,0,0,0-4.17-3.26A20,20,0,0,0,6.58,7.32H1.34C.33,7.31,0,7,0,6c0-1.6,0-3.19,0-4.79C0,.25.28,0,1.27,0H34.83c1,0,1.28.26,1.28,1.26q0,1.79,0,3.57c0,.92-.28,1.2-1.2,1.2h-8.8l-.18,0a.59.59,0,0,0-.55.31.69.69,0,0,0,.18.78l.05.06a13.26,13.26,0,0,1,2.09,4.76,1,1,0,0,0,1.06.87c1,0,2,0,3,0H35c1,0,1.21.26,1.21,1.22v3.63c0,.9-.28,1.17-1.16,1.17H32l-3.18,0h0a.85.85,0,0,0-1,.81,15,15,0,0,1-6.06,9.7,19.43,19.43,0,0,1-7.9,3.31l-1.51.28-1.47.26,1.46,1.6c.65.71,1.28,1.4,1.9,2.1,4.75,5.29,9.33,10.78,12.78,15l1,1.27,2.1,2.54a.83.83,0,0,1,.2,1,.92.92,0,0,1-.93.56H21.6Z"/></g></g></svg>